<?xml version="1.0" standalone="no"?>
<!DOCTYPE svg PUBLIC "-//W3C//DTD SVG 20010904//EN"
 "http://www.w3.org/TR/2001/REC-SVG-20010904/DTD/svg10.dtd">
<svg version="1.0" xmlns="http://www.w3.org/2000/svg"
 width="500.000000pt" height="500.000000pt" viewBox="0 0 3000.000000 3000.000000"
 preserveAspectRatio="xMidYMid meet">

<g transform="translate(0.000000,3000.000000) scale(0.100000,-0.100000)"
fill="#000000" stroke="none">
<path d="M14313 25340 c-13 -5 -23 -14 -23 -20 0 -6 -6 -18 -14 -26 -12 -11
-65 -14 -293 -14 l-278 0 -23 -35 -22 -35 -178 0 -178 0 -29 -30 -29 -30 -132
0 -133 0 -34 -35 c-33 -34 -37 -35 -108 -35 -77 0 -82 -3 -120 -62 -4 -6 -51
-10 -111 -9 l-105 2 -44 -37 -44 -37 -88 7 -88 7 -40 -41 c-31 -31 -47 -40
-74 -40 -42 0 -65 -9 -65 -25 0 -31 -36 -45 -113 -45 -69 0 -77 -2 -88 -22
-18 -34 -28 -38 -102 -38 -65 0 -70 -2 -103 -35 -32 -34 -36 -35 -108 -35 -72
0 -74 -1 -100 -35 -22 -29 -33 -35 -65 -35 -28 0 -44 -7 -66 -30 -22 -23 -38
-30 -66 -30 -32 0 -43 -6 -66 -35 -24 -30 -34 -35 -70 -35 -36 0 -46 -5 -69
-35 -22 -29 -33 -35 -63 -35 -28 0 -44 -7 -66 -30 -21 -22 -38 -30 -64 -30
-40 -1 -62 -14 -80 -47 -9 -17 -21 -23 -46 -23 -45 0 -85 -16 -85 -34 0 -23
-41 -46 -80 -46 -32 0 -44 -8 -96 -65 -54 -59 -63 -65 -99 -65 -33 0 -47 -6
-74 -35 -25 -26 -41 -35 -66 -35 -28 0 -44 -11 -97 -65 -55 -55 -70 -65 -99
-65 -27 0 -43 -8 -69 -35 -26 -27 -42 -35 -69 -35 -31 0 -46 -11 -134 -101
-86 -89 -103 -102 -136 -105 -33 -3 -51 -16 -139 -104 -87 -87 -104 -100 -134
-100 -30 0 -55 -21 -263 -230 -187 -187 -235 -230 -257 -230 -37 0 -76 -19
-83 -41 -4 -10 -19 -26 -36 -36 -16 -9 -29 -22 -29 -28 0 -6 -25 -33 -57 -60
-31 -28 -63 -59 -72 -69 -37 -44 -243 -246 -251 -246 -18 0 -40 -45 -40 -80 0
-34 -15 -51 -230 -264 -211 -209 -231 -232 -236 -270 -6 -36 -19 -54 -105
-137 -86 -84 -99 -101 -99 -130 0 -29 -13 -47 -83 -120 -45 -47 -90 -89 -99
-92 -14 -5 -18 -17 -18 -50 0 -41 -4 -48 -65 -106 -39 -38 -65 -71 -65 -84 0
-36 -22 -83 -44 -93 -12 -5 -22 -20 -24 -34 -6 -54 -14 -71 -47 -102 -19 -17
-35 -37 -35 -44 0 -8 -11 -16 -24 -20 -17 -4 -27 -15 -30 -35 -3 -16 -8 -41
-11 -56 -3 -17 -17 -35 -35 -45 -25 -14 -29 -23 -32 -70 -2 -43 -7 -55 -25
-63 -12 -5 -26 -19 -32 -31 -5 -12 -22 -28 -38 -36 -23 -11 -29 -21 -33 -60
-6 -47 -32 -88 -57 -88 -10 0 -13 -20 -13 -83 0 -69 -3 -87 -18 -100 -10 -10
-23 -17 -29 -17 -14 0 -23 -24 -23 -60 0 -41 -10 -60 -36 -71 -20 -7 -24 -15
-24 -53 0 -40 -4 -48 -35 -72 -31 -23 -35 -32 -35 -70 0 -37 -5 -46 -34 -69
-27 -21 -35 -34 -40 -75 -5 -37 -12 -53 -29 -61 -45 -25 -58 -64 -36 -111 13
-31 -9 -85 -42 -102 -22 -10 -24 -19 -29 -95 -5 -81 -6 -85 -35 -101 -27 -15
-30 -22 -33 -69 -2 -38 -8 -54 -20 -58 -39 -15 -47 -35 -47 -112 0 -74 -1 -76
-32 -96 l-32 -20 -1 -112 0 -112 -35 -27 c-35 -26 -35 -27 -35 -103 0 -83 -4
-95 -37 -105 -29 -9 -37 -54 -28 -152 6 -70 5 -78 -16 -100 -12 -13 -28 -24
-36 -24 -10 0 -13 -32 -13 -149 l0 -149 -36 -29 -35 -28 1 -207 c0 -196 -1
-209 -20 -228 -11 -11 -23 -20 -28 -20 -22 0 -29 -68 -27 -272 0 -120 4 -221
8 -224 23 -23 -18 -114 -50 -114 -6 0 -13 -10 -17 -22 -3 -13 -6 -310 -6 -660
l0 -638 23 -20 c59 -55 59 -54 52 -90 -3 -19 -7 -134 -8 -255 -4 -232 2 -267
42 -280 29 -9 33 -42 30 -248 l-3 -190 37 -29 37 -30 0 -146 0 -147 36 -23 36
-23 -7 -83 c-9 -106 -2 -138 35 -160 29 -17 30 -19 30 -95 0 -78 0 -79 35
-105 l35 -27 0 -106 0 -107 36 -33 c36 -33 36 -33 30 -96 -7 -66 5 -94 46
-110 12 -4 18 -20 20 -58 3 -47 6 -54 33 -69 28 -16 30 -20 33 -86 3 -94 8
-111 34 -118 33 -8 53 -58 39 -98 -17 -49 -14 -63 24 -100 25 -24 37 -47 42
-74 4 -27 16 -49 39 -71 28 -26 34 -39 34 -72 0 -31 5 -44 23 -56 30 -19 47
-56 47 -100 0 -23 5 -35 13 -35 24 0 47 -36 47 -73 0 -36 15 -58 51 -77 16 -9
19 -22 19 -95 0 -65 3 -85 13 -85 24 0 47 -35 47 -71 0 -38 23 -79 45 -79 7 0
23 -16 35 -34 11 -19 30 -38 40 -41 16 -5 20 -16 20 -56 0 -45 3 -52 30 -67
18 -10 32 -28 35 -44 3 -16 8 -42 11 -58 3 -16 11 -30 17 -30 7 0 36 -27 65
-59 42 -48 52 -66 52 -95 0 -26 6 -40 24 -51 28 -18 51 -68 42 -90 -4 -10 17
-38 64 -83 64 -62 70 -71 70 -109 0 -31 5 -44 23 -55 12 -9 57 -50 100 -93 66
-68 77 -83 77 -113 0 -31 11 -46 98 -131 86 -84 100 -102 105 -139 7 -38 26
-60 237 -269 228 -225 230 -228 230 -269 0 -40 19 -74 41 -74 12 0 119 -110
119 -122 0 -4 6 -8 14 -8 7 0 20 -10 29 -23 8 -12 37 -44 63 -70 100 -96 139
-135 155 -153 9 -10 25 -26 35 -36 10 -9 30 -28 43 -42 16 -19 33 -26 58 -26
32 0 53 -18 267 -230 206 -205 235 -231 270 -237 33 -5 55 -21 130 -98 96 -97
125 -118 149 -109 16 6 70 -38 163 -134 52 -53 69 -65 104 -69 30 -4 47 -14
63 -34 17 -24 28 -29 61 -29 36 0 46 -6 101 -65 52 -55 69 -66 108 -74 32 -6
54 -17 68 -35 16 -20 29 -26 58 -26 33 0 46 -8 94 -57 32 -31 57 -59 57 -63 0
-4 27 -13 60 -19 49 -10 63 -17 70 -35 9 -25 36 -36 87 -36 23 0 36 -6 44 -22
18 -35 40 -47 81 -48 28 0 41 -6 53 -24 17 -25 62 -46 100 -46 12 0 31 -13 43
-30 18 -24 30 -30 60 -30 30 0 45 -7 72 -35 27 -28 42 -35 72 -35 30 0 42 -6
60 -30 17 -23 32 -31 70 -36 38 -5 53 -13 69 -35 19 -27 24 -29 95 -29 72 0
75 -1 108 -35 33 -33 38 -35 103 -35 64 0 69 -2 94 -31 24 -29 32 -32 106 -39
85 -7 103 -13 103 -35 0 -16 22 -25 64 -25 24 0 41 -10 71 -41 l40 -40 98 2
c92 2 99 1 125 -23 47 -44 63 -48 148 -38 85 9 89 8 132 -42 22 -26 29 -28
103 -28 71 0 79 -2 90 -22 23 -43 38 -47 179 -48 l134 0 32 -31 33 -32 159 2
c168 2 201 -4 217 -42 10 -22 13 -22 293 -25 296 -2 292 -2 318 -47 11 -20 28
-20 694 -23 l682 -2 32 35 32 35 280 0 279 0 23 36 23 36 175 -4 175 -3 27 33
27 32 141 0 142 0 26 35 c26 34 29 35 99 35 73 1 98 10 110 42 8 22 63 32 144
25 71 -5 118 10 128 43 6 18 16 20 119 20 l113 0 36 40 c30 34 42 40 75 40 32
0 44 5 60 27 18 24 28 28 103 34 51 5 85 12 87 19 13 37 42 50 113 50 69 0 73
1 103 35 30 33 35 34 111 37 72 3 81 5 90 26 10 23 17 26 76 36 21 4 47 19 64
36 22 23 38 30 66 30 32 0 43 6 66 35 24 30 34 35 69 35 33 0 44 5 61 29 16
21 33 30 63 34 29 4 53 15 74 36 23 23 41 31 67 31 35 0 55 13 84 55 11 16 25
20 77 21 35 0 68 2 74 2 6 1 41 31 77 67 54 53 72 65 99 65 39 0 47 6 71 43
15 23 24 27 67 27 28 0 50 3 50 8 0 11 46 62 57 62 5 0 17 13 26 30 16 26 24
30 61 30 35 0 48 6 76 35 26 27 42 35 68 35 30 0 46 12 132 100 87 88 102 100
132 100 31 0 49 14 169 133 115 115 140 135 174 140 35 6 62 29 235 202 175
175 198 195 228 195 30 0 61 28 336 304 167 167 315 312 330 321 21 14 26 25
26 59 0 42 3 45 200 240 187 185 200 200 200 234 0 33 10 46 105 139 95 91
105 105 105 137 0 31 10 46 73 109 40 41 85 82 100 92 23 14 27 25 28 64 1 44
4 49 64 101 57 50 63 59 64 95 2 44 14 65 49 84 18 9 22 20 22 56 0 33 6 50
22 65 12 11 25 20 29 20 4 0 9 9 12 21 3 11 19 25 36 32 28 10 31 16 31 52 0
42 22 85 44 85 17 0 36 43 36 81 0 22 12 43 43 75 23 24 46 44 50 44 21 0 37
32 37 74 0 34 5 48 19 56 44 23 51 39 51 113 0 70 1 73 34 99 30 24 35 35 38
75 3 41 7 50 31 61 23 11 27 19 27 57 0 39 4 47 35 71 30 23 35 32 35 69 0 37
5 46 35 69 27 21 35 34 35 59 0 52 11 77 36 83 26 7 29 17 25 102 -3 56 17
102 44 102 25 0 37 39 30 97 -7 57 10 103 39 103 17 0 36 43 36 84 0 24 7 38
30 54 29 22 30 26 30 97 0 73 1 74 35 101 l35 26 0 110 c0 112 2 119 45 144
17 10 20 23 20 80 0 84 9 110 39 118 29 7 38 56 29 167 l-6 76 37 22 36 23 0
143 0 144 33 25 32 25 0 212 c1 206 1 212 23 229 12 10 27 20 33 22 8 3 11 89
10 285 l-2 281 26 20 c14 11 31 22 36 24 10 3 14 1294 3 1321 -2 7 -18 21 -34
31 l-30 17 0 281 0 282 -32 27 -33 27 3 188 c4 209 0 240 -31 250 -12 4 -25
12 -29 18 -4 6 -8 75 -8 153 0 149 -2 157 -51 184 -18 9 -19 20 -18 119 2 111
-6 140 -37 140 -22 0 -36 50 -29 99 8 53 -9 99 -38 103 -21 3 -22 9 -25 125
l-3 121 -35 27 c-34 26 -35 27 -32 97 2 69 1 72 -30 98 -19 16 -32 36 -32 50
0 42 -23 90 -42 90 -26 0 -41 46 -33 99 7 48 -9 101 -31 101 -28 0 -43 43 -41
114 2 67 -6 85 -46 99 -5 1 -12 26 -15 55 -4 45 -9 55 -34 70 -29 17 -36 31
-40 91 -2 22 -10 38 -23 45 -32 18 -44 39 -45 78 0 29 -6 41 -30 58 -25 18
-30 28 -30 64 0 38 -5 47 -35 70 -35 27 -35 28 -35 106 l0 78 -35 21 c-33 19
-35 24 -35 71 0 27 -4 50 -9 50 -5 0 -35 23 -65 51 -47 43 -56 57 -56 85 0 40
-19 84 -36 84 -21 0 -44 42 -44 81 0 32 -5 40 -35 58 -19 11 -35 25 -35 31 0
14 -25 40 -38 40 -14 0 -22 26 -22 70 0 31 -5 42 -22 51 -36 19 -47 40 -48 86
0 37 -3 43 -25 49 -14 3 -25 12 -25 18 0 15 -42 56 -57 56 -15 0 -23 24 -23
66 0 31 -11 46 -91 125 -50 49 -95 89 -100 89 -5 0 -9 20 -9 45 0 44 -2 47
-105 146 -102 99 -105 103 -105 145 0 24 -4 44 -9 44 -6 0 -96 86 -200 190
-175 175 -191 194 -191 226 0 33 -22 56 -320 354 -298 297 -337 331 -382 335
-21 2 -55 33 -254 233 -145 146 -165 162 -195 162 -30 0 -47 12 -134 101 -87
88 -104 101 -138 104 -34 3 -51 16 -138 104 -94 96 -101 101 -141 101 -37 1
-46 5 -63 33 -17 27 -27 32 -65 35 -39 3 -50 10 -97 60 -29 31 -53 60 -53 65
0 4 -23 7 -50 7 -47 0 -52 2 -71 35 -19 32 -25 35 -65 35 -32 0 -49 6 -62 20
-75 89 -101 110 -138 110 -29 0 -46 8 -80 40 -33 30 -52 40 -78 40 -27 0 -39
7 -60 35 -22 29 -33 35 -65 35 -28 0 -44 7 -66 30 -22 23 -38 30 -66 30 -32 0
-43 6 -66 35 -24 30 -34 35 -70 35 -32 0 -46 6 -60 23 -24 30 -55 47 -88 47
-17 0 -35 11 -52 30 -19 24 -33 30 -63 30 -31 0 -44 7 -69 35 -29 34 -33 35
-100 35 -78 0 -101 6 -101 26 0 27 -43 44 -112 44 -55 0 -72 4 -88 20 -11 11
-20 25 -20 30 0 6 -33 10 -79 10 -78 0 -79 1 -110 35 -24 28 -38 35 -66 35
-28 0 -44 8 -72 35 -20 19 -41 35 -47 36 -6 1 -56 2 -110 3 -63 0 -101 5 -103
12 -15 44 -29 49 -143 51 -107 2 -140 11 -140 36 0 23 -38 36 -105 37 -68 0
-72 2 -104 35 l-33 35 -138 0 -139 0 -21 30 -21 30 -178 0 -179 0 -26 35 -27
35 -276 0 -277 0 -32 35 -32 35 -668 -1 c-374 0 -679 -4 -691 -9z m912 -1140
c3 -5 -3 -10 -14 -10 -12 0 -21 5 -21 10 0 6 6 10 14 10 8 0 18 -4 21 -10z
m-1726 -17 c3 -2 0 -8 -6 -14 -12 -12 -93 6 -93 21 0 9 89 3 99 -7z m239 0 c2
-8 -5 -13 -17 -13 -21 0 -35 13 -24 24 10 10 36 3 41 -11z m3149 -66 c-2 -7
-13 -13 -25 -15 -26 -4 -42 26 -21 38 16 11 52 -7 46 -23z m-3732 13 c3 -5 -3
-10 -15 -10 -12 0 -18 5 -15 10 3 6 10 10 15 10 5 0 12 -4 15 -10z m-131 -56
c9 -3 16 -10 16 -15 0 -11 -35 -12 -70 -2 l-25 7 25 7 c34 10 36 10 54 3z
m749 0 c12 -12 -6 -34 -29 -34 -28 0 -31 15 -6 29 20 12 27 13 35 5z m2507
-19 c11 -13 8 -15 -13 -15 -26 0 -42 12 -30 24 11 11 30 7 43 -9z m-671 -46
c2 -7 14 -23 27 -36 23 -23 25 -23 266 -21 l243 2 13 -28 c8 -15 23 -30 35
-34 12 -5 97 -7 189 -6 l167 2 20 -34 20 -34 116 0 115 0 17 -36 18 -36 110 2
c60 2 115 2 122 1 7 0 17 -19 23 -41 10 -38 13 -40 49 -40 21 0 53 5 70 11 37
13 81 -1 81 -25 0 -26 42 -40 113 -39 63 1 69 -1 85 -25 25 -40 30 -42 114
-42 75 0 78 -1 92 -29 17 -32 34 -41 76 -41 20 0 39 -10 59 -32 29 -32 34 -33
107 -33 76 -1 93 -8 106 -47 2 -6 26 -14 53 -19 35 -6 57 -18 77 -39 21 -24
35 -30 66 -30 33 0 44 -5 66 -35 24 -31 32 -35 75 -35 45 0 50 -3 61 -30 12
-30 20 -33 75 -31 35 2 44 -4 68 -41 14 -22 25 -28 55 -28 44 0 60 -9 76 -41
9 -19 21 -25 56 -27 35 -3 52 -11 77 -35 17 -18 41 -39 51 -48 11 -9 24 -24
29 -34 6 -9 27 -19 52 -22 26 -4 48 -14 59 -28 10 -12 28 -26 41 -30 13 -4 29
-22 37 -41 13 -32 17 -34 60 -34 44 0 49 -3 105 -64 51 -55 64 -64 102 -68 37
-4 53 -15 123 -84 45 -43 86 -89 93 -101 9 -19 20 -23 56 -23 37 0 47 -4 65
-30 12 -16 26 -30 32 -30 8 0 86 -77 126 -125 8 -9 29 -15 56 -15 34 0 47 -5
59 -22 15 -23 146 -159 182 -190 11 -9 26 -23 33 -30 24 -24 117 -117 139
-140 12 -13 27 -29 35 -36 7 -7 38 -37 68 -67 30 -30 64 -63 75 -73 11 -11 39
-39 62 -63 23 -24 48 -50 55 -57 88 -88 90 -91 85 -124 -5 -38 7 -68 28 -68 8
0 39 -25 67 -56 29 -31 59 -61 67 -67 7 -7 37 -37 65 -67 28 -30 66 -68 84
-84 27 -26 32 -36 32 -77 0 -42 3 -50 29 -65 16 -10 35 -28 42 -41 7 -13 16
-23 20 -23 5 0 24 -15 43 -32 19 -18 41 -39 50 -46 9 -7 16 -28 16 -50 0 -44
8 -57 38 -66 12 -4 27 -17 33 -29 6 -12 24 -32 40 -45 26 -21 28 -28 23 -61
-5 -29 -2 -42 11 -52 10 -8 42 -38 71 -67 49 -48 54 -57 54 -97 0 -34 -5 -47
-20 -55 -26 -14 -27 -50 -1 -50 10 0 21 9 24 20 6 23 39 27 56 6 7 -8 11 -32
9 -53 -3 -35 0 -39 36 -57 37 -18 38 -20 33 -59 -6 -44 6 -77 27 -77 7 0 28
-17 47 -38 19 -22 41 -41 48 -43 9 -3 15 -23 16 -53 1 -35 6 -52 21 -62 39
-27 44 -36 44 -79 0 -33 5 -47 19 -55 36 -19 51 -41 51 -76 0 -33 22 -66 51
-76 11 -4 13 -23 11 -82 -3 -77 -3 -78 33 -110 31 -29 35 -38 35 -83 0 -48 1
-50 33 -59 30 -9 32 -13 37 -61 3 -29 8 -53 10 -55 3 -2 17 -12 32 -21 26 -16
27 -20 25 -93 -2 -68 0 -78 21 -94 12 -10 28 -20 35 -23 8 -2 12 -30 12 -87 0
-70 3 -85 18 -94 49 -29 50 -30 48 -109 -1 -77 0 -81 44 -111 16 -12 20 -27
21 -92 2 -66 6 -81 23 -95 12 -10 26 -19 33 -21 7 -3 12 -44 13 -118 2 -107 4
-115 26 -132 13 -10 29 -22 35 -27 8 -6 10 -41 6 -105 -5 -103 6 -138 48 -151
19 -6 20 -14 20 -230 l0 -224 30 -16 c17 -9 30 -19 31 -23 0 -4 2 -113 3 -242
2 -129 6 -242 10 -250 3 -8 18 -22 32 -30 l25 -15 0 -625 c0 -344 0 -631 0
-637 -1 -7 -14 -19 -31 -28 l-30 -16 0 -255 0 -255 -36 -15 -36 -15 2 -212 c1
-117 2 -217 1 -224 -1 -6 -14 -16 -31 -21 -38 -14 -44 -40 -38 -154 5 -79 3
-93 -13 -109 -11 -11 -23 -19 -28 -19 -20 0 -34 -74 -28 -150 5 -84 2 -96 -34
-114 -22 -11 -24 -19 -27 -94 -3 -80 -3 -82 -37 -108 -34 -26 -35 -27 -35
-102 0 -74 -1 -76 -36 -109 -37 -33 -37 -33 -31 -98 l6 -64 -36 -29 c-35 -28
-36 -31 -41 -111 -4 -78 -6 -83 -33 -97 -26 -13 -29 -20 -29 -64 0 -42 -4 -51
-29 -69 -22 -16 -30 -32 -36 -67 -5 -38 -12 -49 -41 -66 l-34 -20 0 -84 c0
-82 0 -84 -29 -99 -34 -17 -40 -29 -34 -71 5 -31 0 -40 -51 -82 -10 -8 -16
-29 -16 -53 0 -35 -4 -42 -35 -60 -32 -19 -35 -25 -35 -70 0 -44 -4 -53 -44
-94 -24 -25 -48 -45 -54 -45 -24 0 -43 -38 -37 -73 6 -31 4 -37 -22 -53 -42
-26 -53 -43 -46 -74 6 -32 -11 -70 -32 -70 -21 0 -35 -33 -35 -80 0 -30 -5
-42 -17 -47 -10 -3 -31 -20 -48 -38 -16 -17 -38 -36 -49 -42 -13 -7 -20 -25
-24 -62 -3 -31 -10 -55 -18 -58 -8 -3 -23 -20 -34 -38 -13 -21 -32 -36 -50
-40 -29 -6 -30 -9 -30 -61 0 -45 -4 -56 -23 -69 -13 -8 -30 -26 -37 -40 -7
-14 -21 -27 -31 -30 -10 -4 -26 -18 -35 -33 -8 -15 -29 -35 -45 -44 -25 -15
-29 -23 -29 -58 0 -43 3 -39 -179 -215 -6 -5 -34 -35 -63 -67 -29 -31 -62 -58
-73 -60 -17 -3 -21 -13 -25 -62 -3 -35 -11 -61 -18 -64 -7 -2 -18 -11 -25 -19
-7 -9 -36 -39 -66 -67 -30 -28 -61 -58 -69 -67 -14 -15 -102 -104 -141 -142
-9 -9 -21 -22 -27 -29 -6 -7 -20 -20 -30 -29 -11 -9 -41 -41 -69 -72 -27 -31
-56 -57 -63 -57 -7 0 -17 -11 -23 -24 -6 -13 -21 -29 -34 -36 -13 -7 -28 -23
-34 -36 -6 -13 -21 -29 -33 -35 -13 -6 -45 -37 -72 -69 -43 -51 -54 -58 -93
-63 -39 -4 -52 -13 -137 -101 -89 -91 -96 -96 -135 -96 -37 0 -44 -4 -62 -35
-12 -19 -25 -35 -31 -35 -5 0 -40 -32 -77 -70 -63 -64 -71 -70 -109 -70 -35 0
-44 -4 -56 -28 -8 -15 -25 -34 -39 -41 -14 -7 -30 -24 -36 -37 -9 -21 -18 -24
-61 -24 -47 0 -52 -2 -71 -35 -11 -19 -28 -37 -38 -40 -9 -3 -25 -18 -34 -35
-15 -26 -24 -30 -59 -30 -37 0 -46 -6 -102 -64 -57 -60 -65 -65 -111 -68 -42
-3 -51 -7 -65 -33 -14 -26 -23 -31 -68 -35 -46 -4 -55 -9 -72 -37 -18 -29 -25
-33 -65 -33 -39 0 -46 -3 -60 -30 -17 -32 -17 -33 -84 -34 -38 -1 -46 -5 -61
-31 -14 -25 -24 -31 -58 -33 -34 -3 -47 -10 -68 -38 -23 -29 -32 -34 -69 -34
-37 0 -46 -5 -70 -36 l-28 -36 -68 6 c-71 7 -89 0 -116 -48 -6 -11 -26 -18
-58 -20 -40 -3 -53 -10 -74 -35 -24 -29 -31 -31 -86 -31 -81 0 -97 -6 -117
-40 -16 -28 -20 -29 -99 -32 -80 -3 -83 -4 -99 -33 -16 -29 -19 -30 -95 -31
-70 0 -80 -3 -96 -25 -11 -13 -23 -29 -28 -35 -6 -8 -41 -10 -104 -6 -119 6
-139 1 -154 -37 l-11 -30 -118 -3 -117 -3 -17 -30 -17 -30 -188 -5 -188 -5
-17 -30 -17 -30 -225 4 c-124 2 -239 0 -255 -3 -22 -5 -35 -16 -43 -37 -7 -16
-15 -29 -19 -29 -3 0 -275 -1 -604 -1 -611 0 -627 1 -627 37 0 23 -43 28 -279
28 l-234 1 -17 30 -17 30 -183 3 -184 2 -32 35 -32 35 -111 0 c-110 0 -112 0
-121 25 -13 35 -51 47 -140 45 -108 -3 -106 -3 -129 35 l-21 35 -79 -6 -79 -7
-18 29 c-27 42 -32 44 -111 44 -53 0 -76 4 -85 16 -45 55 -45 55 -125 52 -66
-2 -78 1 -87 17 -23 39 -47 55 -80 55 -26 0 -40 7 -56 27 -20 26 -29 28 -108
33 -83 5 -86 6 -102 35 -15 27 -22 30 -69 33 -49 3 -53 5 -67 38 -14 33 -16
34 -68 34 -50 0 -54 2 -66 30 -7 17 -18 30 -24 31 -6 1 -29 3 -51 5 -36 3 -58
18 -68 47 -2 6 -27 14 -57 17 -46 4 -56 9 -70 35 -15 27 -23 30 -68 33 -49 3
-53 5 -67 38 -13 32 -17 34 -59 34 -40 0 -51 5 -89 43 -24 23 -49 52 -56 65
-9 18 -20 22 -58 22 -43 0 -50 4 -97 55 -28 29 -57 61 -64 70 -7 8 -29 15 -50
15 -34 0 -44 7 -97 65 -53 57 -64 65 -97 65 -31 0 -46 8 -90 51 -29 28 -67 62
-85 76 -17 13 -36 37 -42 54 -9 27 -13 29 -64 29 -47 0 -55 3 -67 25 -7 14
-17 25 -21 25 -16 0 -108 97 -118 123 -9 24 -16 27 -56 27 l-45 0 -183 184
c-212 215 -178 181 -297 299 -52 52 -100 100 -106 108 -7 8 -48 48 -93 91 -75
71 -81 79 -81 116 0 42 -16 66 -48 77 -11 3 -25 16 -32 30 -7 14 -20 27 -29
30 -9 3 -36 29 -61 57 -25 29 -73 80 -108 114 -58 58 -62 65 -62 107 0 41 -3
46 -29 55 -16 6 -37 21 -46 35 -23 36 -93 107 -104 107 -17 0 -33 40 -27 65 8
33 -2 53 -35 70 -15 8 -30 24 -34 35 -4 11 -20 27 -37 36 -29 15 -30 17 -26
75 3 54 1 59 -17 59 -12 0 -42 20 -68 45 -36 34 -47 51 -47 75 0 41 -16 69
-45 80 -20 8 -24 17 -27 61 -3 47 -6 54 -33 69 -25 14 -31 23 -33 61 -3 40
-10 50 -70 108 -63 61 -67 67 -67 109 0 45 -6 53 -47 66 -15 4 -18 17 -18 64
0 56 -1 59 -32 73 -29 12 -34 20 -41 65 -6 39 -14 54 -33 64 -22 12 -24 19
-24 81 0 66 -14 119 -32 119 -22 0 -48 42 -48 79 0 33 -5 43 -30 61 -26 19
-30 27 -30 70 0 44 -3 50 -35 68 -34 21 -34 21 -37 103 -3 80 -4 83 -33 99
-29 16 -30 19 -31 91 0 100 0 99 -34 110 -35 13 -32 6 -34 89 -3 82 -10 104
-41 118 -23 10 -24 17 -27 98 -3 86 -4 88 -33 104 l-30 17 -5 118 -5 118 -30
17 c-30 17 -30 17 -27 97 4 75 -10 163 -26 163 -4 0 -16 7 -27 15 -18 15 -19
26 -16 213 3 212 -2 241 -45 260 l-23 11 -3 246 -3 246 -33 27 -33 27 0 635
c0 588 1 636 17 645 57 33 56 28 54 278 -1 128 -1 237 -1 244 1 6 17 21 37 32
l36 21 -3 217 c-3 164 -1 217 9 221 6 2 22 12 34 22 21 17 23 26 23 131 0 110
1 114 24 125 37 19 41 32 41 151 0 103 2 112 20 118 41 13 50 33 50 113 1 76
1 77 33 97 32 21 32 21 30 98 l-3 78 34 20 c40 23 58 79 49 146 -5 38 -3 42
26 57 31 17 31 17 31 101 0 81 1 85 28 102 37 24 43 33 41 68 -2 49 0 52 37
74 34 20 36 25 31 57 -6 36 -1 45 58 93 15 12 17 26 13 83 -5 69 -5 70 28 104
25 24 34 42 34 66 0 39 6 47 43 71 23 15 27 24 27 67 0 41 4 51 23 61 31 17
37 28 37 72 0 32 8 46 50 87 27 28 54 50 59 50 16 0 31 35 31 73 0 37 12 53
45 59 17 3 21 13 25 63 5 57 6 60 35 65 28 5 30 8 35 62 4 50 10 61 51 105 26
26 54 54 63 61 10 8 16 28 16 57 0 34 5 47 20 55 11 6 41 32 67 57 35 35 46
54 45 76 -1 40 14 77 32 77 8 0 23 14 33 30 9 17 20 30 24 30 3 0 32 24 63 53
48 46 56 59 56 90 0 33 12 48 150 186 83 83 154 151 160 151 17 0 30 37 24 68
-6 30 2 39 114 143 9 9 25 25 34 35 9 10 23 25 30 32 7 7 129 130 271 272 141
143 261 260 265 260 5 0 18 14 30 30 19 24 30 30 62 30 24 0 44 6 52 16 14 17
43 46 101 101 21 20 45 47 54 59 12 19 24 24 59 24 28 0 48 6 56 16 7 9 50 54
96 100 58 60 89 84 106 84 37 0 74 17 80 37 3 10 19 27 35 38 17 10 34 30 40
42 9 19 18 23 55 23 29 0 50 6 58 15 7 9 36 41 65 72 49 52 54 55 87 49 26 -5
38 -2 48 10 7 8 36 40 64 70 47 48 56 54 93 54 37 0 44 4 62 35 19 31 25 35
64 35 35 0 49 6 72 30 21 22 37 30 63 30 42 0 58 9 74 41 9 19 22 25 63 29 29
3 53 8 55 10 2 3 12 17 21 33 15 23 24 27 66 27 45 0 51 3 70 35 17 30 26 35
56 35 28 0 44 8 71 36 34 34 39 35 85 29 69 -10 106 1 124 35 12 23 24 30 61
36 25 3 51 13 57 21 42 52 41 51 124 46 l78 -6 17 37 18 36 75 0 c75 0 77 1
109 36 32 35 37 36 76 30 65 -10 108 2 125 34 19 37 42 43 111 31 72 -14 130
0 161 37 22 26 28 27 140 32 l116 5 17 30 17 30 177 0 178 0 32 37 31 36 232
-4 c230 -5 273 0 273 28 0 6 6 19 14 27 13 14 79 16 618 14 469 -2 604 -5 607
-14z m1061 -19 c0 -5 -4 -10 -10 -10 -5 0 -10 5 -10 10 0 6 5 10 10 10 6 0 10
-4 10 -10z m670 0 c0 -5 -2 -10 -4 -10 -3 0 -8 5 -11 10 -3 6 -1 10 4 10 6 0
11 -4 11 -10z m-4860 -60 c0 -5 -7 -10 -15 -10 -8 0 -15 5 -15 10 0 6 7 10 15
10 8 0 15 -4 15 -10z m4550 -5 c0 -15 -43 -12 -48 3 -3 10 4 13 22 10 15 -2
26 -7 26 -13z m515 5 c3 -5 -1 -10 -10 -10 -9 0 -13 5 -10 10 3 6 8 10 10 10
2 0 7 -4 10 -10z m-590 -10 c3 -5 -3 -10 -14 -10 -12 0 -21 5 -21 10 0 6 6 10
14 10 8 0 18 -4 21 -10z m-4147 -63 c2 -11 -3 -17 -17 -17 -23 0 -35 15 -26
31 10 15 39 6 43 -14z m4886 -19 c-3 -5 -12 -4 -20 3 -7 6 -11 15 -8 21 3 5
12 4 20 -3 7 -6 11 -15 8 -21z m-294 -58 c0 -5 -4 -10 -10 -10 -5 0 -10 5 -10
10 0 6 5 10 10 10 6 0 10 -4 10 -10z m239 -44 c10 -11 8 -16 -9 -21 -22 -7
-53 11 -44 26 8 14 40 11 53 -5z m401 -16 c0 -5 -11 -10 -25 -10 -14 0 -25 5
-25 10 0 6 11 10 25 10 14 0 25 -4 25 -10z m-207 -66 c-7 -18 -43 -18 -43 0 0
8 6 16 13 19 19 7 36 -3 30 -19z m394 9 c5 -15 -28 -26 -41 -13 -8 8 -7 14 4
20 17 11 32 8 37 -7z m-6427 -7 c0 -14 -29 -31 -38 -22 -2 3 -2 12 1 21 8 19
37 20 37 1z m410 0 c0 -20 -16 -29 -40 -21 -32 10 -25 35 10 35 19 0 30 -5 30
-14z m5750 -70 c0 -3 -4 -8 -10 -11 -5 -3 -10 -1 -10 4 0 6 5 11 10 11 6 0 10
-2 10 -4z m-6080 -61 c0 -20 -28 -31 -42 -17 -10 10 8 23 40 31 1 1 2 -6 2
-14z m6610 -9 c0 -18 -30 -30 -43 -17 -5 5 -6 14 -3 20 10 16 46 13 46 -3z
m-173 -63 c4 -12 -34 -29 -44 -19 -3 3 -3 12 1 21 7 18 37 17 43 -2z m-6587
-3 c0 -5 -7 -10 -16 -10 -8 0 -12 5 -9 10 3 6 10 10 16 10 5 0 9 -4 9 -10z
m-470 -60 c0 -5 -9 -10 -21 -10 -11 0 -17 5 -14 10 3 6 13 10 21 10 8 0 14 -4
14 -10z m-125 -75 c0 -5 -10 -11 -22 -13 -16 -2 -23 2 -23 13 0 11 7 15 23 13
12 -2 22 -7 22 -13z m335 1 c0 -19 -39 -31 -53 -17 -9 9 -8 14 3 21 22 14 50
12 50 -4z m7118 -13 c2 -8 -5 -13 -17 -13 -21 0 -35 13 -24 24 10 10 36 3 41
-11z m-7248 -58 c0 -9 -9 -15 -25 -15 -24 0 -32 10 -18 23 12 13 43 7 43 -8z
m7366 4 c7 -12 -15 -31 -31 -26 -5 2 -11 11 -13 20 -4 19 32 24 44 6z m144
-79 c0 -5 -9 -10 -20 -10 -11 0 -20 5 -20 10 0 6 9 10 20 10 11 0 20 -4 20
-10z m460 -120 c0 -5 -4 -10 -10 -10 -5 0 -10 5 -10 10 0 6 5 10 10 10 6 0 10
-4 10 -10z m-8323 -16 c-3 -3 -12 -4 -19 -1 -8 3 -5 6 6 6 11 1 17 -2 13 -5z
m8176 -59 c4 -8 2 -17 -4 -21 -11 -6 -39 13 -39 27 0 15 37 10 43 -6z m-8653
-60 c0 -16 -27 -32 -37 -22 -3 4 -3 13 0 22 8 20 37 20 37 0z m8774 0 c7 -18
-35 -38 -59 -29 -16 6 -20 26 -8 37 13 13 61 7 67 -8z m-8699 -115 c3 -6 3
-19 0 -30 -8 -26 -60 -28 -69 -3 -12 30 52 60 69 33z m9133 -232 c-7 -19 -38
-22 -38 -4 0 10 9 16 21 16 12 0 19 -5 17 -12z m282 -9 c0 -5 -7 -9 -15 -9 -8
0 -15 7 -15 15 0 9 6 12 15 9 8 -4 15 -10 15 -15z m40 -45 c0 -8 -4 -12 -10
-9 -5 3 -10 10 -10 16 0 5 5 9 10 9 6 0 10 -7 10 -16z m210 -135 c0 -5 -4 -9
-10 -9 -5 0 -10 7 -10 16 0 8 5 12 10 9 6 -3 10 -10 10 -16z m-260 -4 c10 -12
10 -19 1 -28 -14 -14 -44 2 -49 27 -4 21 31 22 48 1z m192 -132 c10 -9 18 -25
18 -35 0 -15 -5 -18 -22 -12 -26 8 -38 22 -38 47 0 22 18 22 42 0z m66 -75
c16 -16 15 -28 -1 -28 -7 0 -18 9 -25 20 -10 16 -10 20 1 20 7 0 18 -5 25 -12z
m-10800 -139 c-2 -6 -8 -10 -13 -10 -5 0 -11 4 -13 10 -2 6 4 11 13 11 9 0 15
-5 13 -11z m10946 3 c9 -14 -12 -35 -28 -29 -23 9 -20 37 3 37 11 0 22 -4 25
-8z m61 -82 c3 -5 -1 -10 -9 -10 -9 0 -16 5 -16 10 0 6 4 10 9 10 6 0 13 -4
16 -10z m72 -55 c3 -9 3 -18 1 -21 -9 -9 -38 8 -38 22 0 19 29 18 37 -1z m53
-70 c0 -8 -4 -15 -9 -15 -5 0 -11 7 -15 15 -3 9 0 15 9 15 8 0 15 -7 15 -15z
m-11410 -65 c0 -5 -4 -10 -10 -10 -5 0 -10 5 -10 10 0 6 5 10 10 10 6 0 10 -4
10 -10z m11475 -10 c3 -5 1 -10 -4 -10 -6 0 -11 5 -11 10 0 6 2 10 4 10 3 0 8
-4 11 -10z m99 -57 c4 -9 2 -21 -4 -27 -13 -13 -46 17 -36 33 11 16 33 13 40
-6z m-11714 -89 c0 -14 -3 -14 -15 -4 -8 7 -15 14 -15 16 0 2 7 4 15 4 8 0 15
-7 15 -16z m200 12 c0 -3 -4 -8 -10 -11 -5 -3 -10 -1 -10 4 0 6 5 11 10 11 6
0 10 -2 10 -4z m-60 -60 c0 -3 -4 -8 -10 -11 -5 -3 -10 -1 -10 4 0 6 5 11 10
11 6 0 10 -2 10 -4z m-75 -131 c0 -25 -4 -30 -25 -30 -28 0 -39 27 -19 51 20
24 44 13 44 -21z m11953 -79 c7 -7 14 -25 15 -41 3 -43 -29 -46 -65 -5 -28 33
-34 51 -21 64 10 9 55 -2 71 -18z m-12431 -272 c-9 -9 -28 6 -21 18 4 6 10 6
17 -1 6 -6 8 -13 4 -17z m12658 -24 c10 -16 -5 -50 -21 -50 -8 0 -14 10 -14
23 0 34 21 50 35 27z m53 -114 c3 -12 -1 -17 -10 -14 -7 3 -15 13 -16 22 -3
12 1 17 10 14 7 -3 15 -13 16 -22z m-12693 -57 c0 -7 -8 -15 -17 -17 -18 -3
-25 18 -11 32 10 10 28 1 28 -15z m-219 -45 c-3 -9 -6 -18 -6 -20 0 -2 -7 -4
-15 -4 -18 0 -19 12 -3 28 17 17 31 15 24 -4z m129 -82 c0 -31 -19 -28 -23 4
-3 18 0 25 10 22 7 -3 13 -14 13 -26z m-205 -7 c0 -8 -4 -15 -10 -15 -5 0 -10
7 -10 15 0 8 5 15 10 15 6 0 10 -7 10 -15z m13190 -81 c0 -17 -22 -14 -28 4
-2 7 3 12 12 12 9 0 16 -7 16 -16z m-13312 -142 c2 -23 -1 -32 -12 -32 -23 0
-40 38 -25 56 18 22 34 12 37 -24z m13372 18 c0 -5 -2 -10 -4 -10 -3 0 -8 5
-11 10 -3 6 -1 10 4 10 6 0 11 -4 11 -10z m-13446 -136 c7 -19 -12 -47 -25
-38 -5 3 -9 16 -9 30 0 27 24 33 34 8z m13600 -40 c12 -31 7 -56 -11 -52 -23
4 -32 68 -10 68 8 0 18 -7 21 -16z m69 -115 c10 -36 -12 -65 -28 -38 -9 13 3
59 14 59 5 0 11 -9 14 -21z m207 -43 c0 -18 -10 -25 -26 -19 -8 3 -14 16 -14
29 0 22 3 23 20 14 11 -6 20 -17 20 -24z m-14010 -5 c0 -6 -4 -13 -10 -16 -5
-3 -10 1 -10 9 0 9 5 16 10 16 6 0 10 -4 10 -9z m140 -115 c0 -14 -5 -28 -10
-31 -13 -8 -24 20 -16 40 9 24 26 17 26 -9z m13938 -13 c-2 -10 -10 -18 -18
-18 -8 0 -16 8 -18 18 -2 12 3 17 18 17 15 0 20 -5 18 -17z m70 -136 c6 -30
-7 -67 -23 -67 -24 0 -39 43 -25 69 13 26 43 24 48 -2z m-14293 -15 c0 -18
-20 -15 -23 4 -3 10 1 15 10 12 7 -3 13 -10 13 -16z m14355 -112 c0 -23 -10
-26 -28 -8 -18 18 -15 28 8 28 13 0 20 -7 20 -20z m-14420 -41 c0 -5 -4 -9
-10 -9 -5 0 -10 7 -10 16 0 8 5 12 10 9 6 -3 10 -10 10 -16z m132 -61 c-15
-15 -26 -4 -18 18 5 13 9 15 18 6 9 -9 9 -15 0 -24z m14162 9 c6 -9 7 -19 3
-23 -9 -9 -37 15 -37 33 0 18 20 12 34 -10z m-14344 -78 c0 -32 -34 -20 -38
14 -3 26 -2 28 17 17 12 -6 21 -20 21 -31z m14540 22 c0 -22 -25 -45 -40 -36
-11 7 -14 38 -3 48 14 15 43 7 43 -12z m-150 -75 c-14 -14 -24 0 -16 21 6 15
8 15 16 3 6 -9 5 -19 0 -24z m220 -69 c0 -32 -14 -49 -33 -41 -22 8 -22 50 0
63 23 12 33 5 33 -22z m-14700 8 c0 -8 -4 -15 -10 -15 -5 0 -10 7 -10 15 0 8
5 15 10 15 6 0 10 -7 10 -15z m154 -110 c6 -18 -2 -45 -15 -45 -5 0 -9 14 -9
30 0 32 14 40 24 15z m14406 -2 c0 -26 -16 -47 -29 -39 -14 9 -14 29 1 44 17
17 28 15 28 -5z m206 -18 c7 -18 -9 -68 -23 -72 -20 -7 -34 33 -23 61 10 28
37 35 46 11z m-14831 -15 c3 -5 1 -10 -4 -10 -6 0 -11 5 -11 10 0 6 2 10 4 10
3 0 8 -4 11 -10z m145 -124 c0 -2 -7 -9 -15 -16 -12 -10 -15 -10 -15 4 0 9 7
16 15 16 8 0 15 -2 15 -4z m-190 -55 c0 -32 -11 -51 -30 -51 -19 0 -32 32 -23
56 8 22 53 18 53 -5z m14940 -35 c-15 -15 -34 9 -26 31 7 17 8 17 22 -1 9 -13
11 -23 4 -30z m-15030 -132 c0 -8 -4 -12 -10 -9 -5 3 -10 10 -10 16 0 5 5 9
10 9 6 0 10 -7 10 -16z m150 -129 c0 -8 -4 -15 -9 -15 -13 0 -22 16 -14 24 11
11 23 6 23 -9z m-200 -65 c0 -11 -7 -20 -15 -20 -8 0 -15 9 -15 20 0 11 7 20
15 20 8 0 15 -9 15 -20z m15207 -12 c-3 -8 -6 -5 -6 6 -1 11 2 17 5 13 3 -3 4
-12 1 -19z m-15077 -110 c0 -10 -7 -18 -15 -18 -8 0 -15 8 -15 18 0 10 7 19
15 19 8 0 15 -9 15 -19z m-204 -83 c4 -8 3 -27 -1 -43 -7 -25 -8 -25 -15 -7
-12 29 -12 65 0 65 6 0 13 -7 16 -15z m129 -95 c7 -23 -2 -43 -16 -35 -12 8
-12 55 0 55 5 0 12 -9 16 -20z m-59 -184 c6 -35 0 -56 -17 -56 -5 0 -9 20 -9
45 0 53 16 60 26 11z m-208 -188 c-2 -13 -7 -23 -13 -23 -5 0 -11 10 -13 23
-2 15 2 22 13 22 11 0 15 -7 13 -22z m-8 -633 c0 -8 -4 -15 -10 -15 -5 0 -10
7 -10 15 0 8 5 15 10 15 6 0 10 -7 10 -15z m9 -169 c15 -61 14 -96 -3 -96 -20
0 -33 20 -41 61 -7 36 7 79 24 79 5 0 14 -20 20 -44z m-129 -22 c0 -8 -4 -14
-10 -14 -5 0 -10 9 -10 21 0 11 5 17 10 14 6 -3 10 -13 10 -21z m15747 -61
c-16 -16 -17 -16 -17 3 0 26 11 37 24 24 7 -7 5 -16 -7 -27z m-15840 -75 c-3
-8 -6 -5 -6 6 -1 11 2 17 5 13 3 -3 4 -12 1 -19z m-57 -1803 c0 -14 -4 -25 -9
-25 -12 0 -19 21 -13 38 8 21 22 13 22 -13z m16175 -4 c3 -5 1 -12 -5 -16 -5
-3 -10 1 -10 9 0 18 6 21 15 7z m-205 -135 c0 -8 -4 -17 -9 -21 -12 -7 -24 12
-16 25 9 15 25 12 25 -4z m140 -472 c0 -17 -22 -14 -28 4 -2 7 3 12 12 12 9 0
16 -7 16 -16z m-15825 -91 c-7 -27 -7 -28 -17 -6 -13 27 -2 61 14 45 6 -6 8
-22 3 -39z m15618 35 c6 -19 -3 -38 -19 -38 -8 0 -14 10 -14 25 0 26 25 35 33
13z m-3 -118 c0 -11 -4 -20 -10 -20 -5 0 -10 9 -10 20 0 11 5 20 10 20 6 0 10
-9 10 -20z m10 -190 c0 -10 -4 -21 -9 -24 -10 -7 -23 33 -15 46 8 13 24 -1 24
-22z m60 -160 c0 -27 -17 -34 -29 -12 -7 13 -7 22 1 30 15 15 28 6 28 -18z
m-140 -10 c0 -5 -4 -10 -10 -10 -5 0 -10 5 -10 10 0 6 5 10 10 10 6 0 10 -4
10 -10z m-15622 -82 c-2 -38 -8 -63 -15 -66 -10 -3 -13 13 -13 56 0 32 3 62 7
65 17 18 24 2 21 -55z m15618 -65 c-11 -11 -19 6 -11 24 8 17 8 17 12 0 3 -10
2 -21 -1 -24z m131 5 c-3 -8 -6 -5 -6 6 -1 11 2 17 5 13 3 -3 4 -12 1 -19z
m-15677 -128 c0 -11 -4 -20 -10 -20 -5 0 -10 9 -10 20 0 11 5 20 10 20 6 0 10
-9 10 -20z m4 -86 c10 -25 7 -62 -5 -70 -19 -12 -32 13 -25 50 7 38 20 46 30
20z m15624 -57 c2 -10 -3 -17 -12 -17 -10 0 -16 9 -16 21 0 24 23 21 28 -4z
m-62 -273 c-3 -9 -12 -14 -19 -12 -15 5 -21 33 -12 55 5 14 8 13 21 -6 9 -12
13 -29 10 -37z m-206 -49 c0 -16 -27 -32 -37 -22 -3 4 -3 13 0 22 8 20 37 20
37 0z m123 -162 c-3 -7 -9 -13 -13 -13 -16 0 -22 21 -9 36 14 17 31 0 22 -23z
m-15273 -119 c0 -17 -22 -14 -28 4 -2 7 3 12 12 12 9 0 16 -7 16 -16z m15020
-153 c0 -36 -11 -53 -26 -40 -22 18 -18 59 6 59 13 0 20 -7 20 -19z m122 -126
c-11 -21 -25 -4 -16 20 4 10 10 13 16 7 7 -7 7 -16 0 -27z m-15095 -7 c-3 -8
-6 -5 -6 6 -1 11 2 17 5 13 3 -3 4 -12 1 -19z m221 -75 c-4 -33 -24 -41 -31
-12 -7 27 -1 39 19 39 11 0 14 -8 12 -27z m14610 -137 c3 -12 -1 -17 -10 -14
-7 3 -15 13 -16 22 -3 12 1 17 10 14 7 -3 15 -13 16 -22z m-14403 -326 c0 -36
-29 -33 -33 3 -3 23 0 28 15 25 12 -2 18 -12 18 -28z m14250 0 c-3 -5 -10 -10
-16 -10 -5 0 -9 5 -9 10 0 6 7 10 16 10 8 0 12 -4 9 -10z m155 -41 c0 -33 -26
-51 -41 -28 -13 21 -11 57 4 62 23 8 37 -5 37 -34z m-14560 -20 c0 -11 -4 -17
-10 -14 -5 3 -10 13 -10 21 0 8 5 14 10 14 6 0 10 -9 10 -21z m14360 -58 c0
-26 -23 -44 -38 -29 -17 17 -15 35 5 47 22 12 33 5 33 -18z m-14153 -23 c-3
-8 -6 -5 -6 6 -1 11 2 17 5 13 3 -3 4 -12 1 -19z m14271 -20 c7 -7 12 -23 12
-36 0 -38 -34 -24 -38 16 -3 33 6 40 26 20z m-14398 -15 c0 -5 -4 -15 -10 -23
-11 -18 -25 -7 -17 15 6 15 27 21 27 8z m14267 -285 c-3 -8 -6 -5 -6 6 -1 11
2 17 5 13 3 -3 4 -12 1 -19z m-197 2 c0 -5 -7 -10 -16 -10 -8 0 -12 5 -9 10 3
6 10 10 16 10 5 0 9 -4 9 -10z m132 -115 c9 -21 8 -28 -7 -45 -23 -25 -35 -17
-35 24 0 52 23 63 42 21z m-225 -27 c-3 -8 -6 -5 -6 6 -1 11 2 17 5 13 3 -3 4
-12 1 -19z m-13577 -8 c0 -5 -4 -10 -10 -10 -5 0 -10 5 -10 10 0 6 5 10 10 10
6 0 10 -4 10 -10z m13538 -122 c-5 -32 -28 -35 -28 -4 0 17 5 26 16 26 10 0
14 -7 12 -22z m-13531 -223 c-2 -5 -11 -11 -20 -13 -12 -3 -17 4 -17 21 0 13
3 27 7 31 9 9 35 -24 30 -39z m13589 31 c3 -8 4 -23 2 -32 -3 -17 -4 -17 -20
0 -9 9 -15 23 -12 31 8 19 23 19 30 1z m-198 -18 c-6 -18 -28 -21 -28 -4 0 9
7 16 16 16 9 0 14 -5 12 -12z m-13124 -123 c4 -10 -1 -15 -14 -15 -20 0 -26
11 -13 23 10 11 20 8 27 -8z m-144 -70 c0 -8 -4 -15 -10 -15 -5 0 -10 7 -10
15 0 8 5 15 10 15 6 0 10 -7 10 -15z m223 3 c2 -7 0 -21 -5 -31 -7 -15 -12
-16 -24 -6 -21 17 -18 49 5 49 11 0 21 -6 24 -12z m12902 -28 c-5 -8 -11 -8
-17 -2 -6 6 -7 16 -3 22 5 8 11 8 17 2 6 -6 7 -16 3 -22z m-12840 -140 c3 -5
-1 -10 -9 -10 -9 0 -16 5 -16 10 0 6 4 10 9 10 6 0 13 -4 16 -10z m12920 -40
c0 -15 -31 -37 -40 -28 -4 3 -1 16 5 28 12 22 35 23 35 0z m-12875 0 c0 -5 -4
-10 -10 -10 -5 0 -10 5 -10 10 0 6 5 10 10 10 6 0 10 -4 10 -10z m12740 -160
c0 -5 -4 -10 -10 -10 -5 0 -10 5 -10 10 0 6 5 10 10 10 6 0 10 -4 10 -10z
m-200 -46 c0 -14 -21 -19 -33 -7 -9 9 13 34 24 27 5 -3 9 -12 9 -20z m-12515
-25 c4 -5 4 -21 1 -35 -9 -32 -46 -34 -46 -1 0 35 31 60 45 36z m203 -53 c3
-13 -1 -17 -14 -14 -11 2 -20 11 -22 22 -3 13 1 17 14 14 11 -2 20 -11 22 -22z
m197 -196 c0 -13 -5 -25 -12 -27 -13 -5 -27 32 -18 47 11 18 30 5 30 -20z
m11840 -15 c0 -10 -5 -20 -11 -22 -13 -4 -27 24 -18 38 9 15 29 4 29 -16z
m-80 -114 c3 -6 -4 -15 -15 -21 -16 -8 -20 -8 -20 3 0 25 23 36 35 18z m-55
-56 c0 -9 -9 -15 -21 -15 -18 0 -19 2 -9 15 7 8 16 15 21 15 5 0 9 -7 9 -15z
m44 -183 c-5 -4 -18 -20 -28 -36 -14 -21 -21 -25 -29 -16 -9 8 -4 18 23 40 19
16 37 26 40 24 2 -3 0 -8 -6 -12z m-244 -251 c0 -12 -20 -25 -27 -18 -7 7 6
27 18 27 5 0 9 -4 9 -9z m-50 -45 c0 -18 -15 -36 -31 -36 -22 0 -24 11 -7 28
11 11 38 17 38 8z m-10833 -42 c-9 -9 -28 6 -21 18 4 6 10 6 17 -1 6 -6 8 -13
4 -17z m10523 -34 c0 -5 -4 -10 -10 -10 -5 0 -10 5 -10 10 0 6 5 10 10 10 6 0
10 -4 10 -10z m-10120 -270 c0 -5 -7 -10 -15 -10 -8 0 -15 5 -15 10 0 6 7 10
15 10 8 0 15 -4 15 -10z m9778 -7 c-5 -25 -28 -28 -28 -4 0 12 6 21 16 21 9 0
14 -7 12 -17z m-264 -194 c-3 -5 -10 -7 -15 -3 -5 3 -7 10 -3 15 3 5 10 7 15
3 5 -3 7 -10 3 -15z m166 -74 c0 -8 -7 -15 -15 -15 -16 0 -20 12 -8 23 11 12
23 8 23 -8z m-9222 -68 c2 -11 -6 -19 -23 -23 -38 -9 -53 10 -24 30 27 19 43
16 47 -7z m-148 -55 c0 -5 -11 -15 -25 -22 -20 -11 -28 -11 -38 -1 -9 9 -9 14
3 21 19 12 60 13 60 2z m8805 -72 c3 -5 -1 -10 -9 -10 -9 0 -16 5 -16 10 0 6
4 10 9 10 6 0 13 -4 16 -10z m352 -16 c5 -14 -22 -25 -42 -18 -8 4 -15 13 -15
21 0 17 51 14 57 -3z m-9006 -44 c25 -14 24 -37 -1 -45 -25 -8 -50 10 -50 36
0 21 21 25 51 9z m414 -81 c10 -15 -1 -23 -20 -15 -9 3 -13 10 -10 16 8 13 22
13 30 -1z m8060 1 c-3 -5 -12 -10 -20 -10 -8 0 -17 5 -20 10 -4 6 5 10 20 10
15 0 24 -4 20 -10z m-8252 -59 c16 -16 0 -41 -26 -41 -27 0 -41 13 -51 47 -6
20 -5 21 30 13 20 -5 41 -13 47 -19z m259 6 c9 -14 1 -27 -17 -27 -13 0 -35
29 -35 45 0 10 44 -6 52 -18z m8182 -16 c9 -13 -19 -32 -38 -25 -17 6 -20 16
-9 27 9 10 41 9 47 -2z m-8046 -63 c-7 -19 -38 -22 -38 -4 0 10 9 16 21 16 12
0 19 -5 17 -12z m7642 -3 c0 -8 -9 -15 -20 -15 -20 0 -26 11 -13 23 12 13 33
7 33 -8z m-132 -67 c-6 -18 -28 -21 -28 -4 0 9 7 16 16 16 9 0 14 -5 12 -12z
m317 -8 c3 -5 1 -10 -4 -10 -6 0 -11 5 -11 10 0 6 2 10 4 10 3 0 8 -4 11 -10z
m-7555 -59 c0 -22 -21 -33 -40 -21 -18 11 -4 40 20 40 13 0 20 -7 20 -19z
m7107 -7 c2 -6 -4 -14 -13 -18 -19 -7 -47 11 -38 26 8 12 46 6 51 -8z m-7439
-6 c-7 -19 -38 -22 -38 -4 0 10 9 16 21 16 12 0 19 -5 17 -12z m7752 0 c0 -4
-7 -8 -15 -8 -8 0 -15 4 -15 8 0 5 7 9 15 9 8 0 15 -4 15 -9z m-130 -53 c0 -8
-7 -15 -15 -15 -16 0 -20 12 -8 23 11 12 23 8 23 -8z m-7505 -15 c3 -5 -1 -10
-9 -10 -9 0 -16 5 -16 10 0 6 4 10 9 10 6 0 13 -4 16 -10z m489 -48 c9 -14
-12 -35 -28 -29 -23 9 -20 37 3 37 11 0 22 -4 25 -8z m-189 -71 c3 -6 -4 -15
-16 -22 -17 -9 -23 -8 -30 2 -4 7 -5 17 -3 21 7 11 42 10 49 -1z m6613 -8 c2
-8 -5 -13 -17 -13 -21 0 -35 13 -24 24 10 10 36 3 41 -11z m322 -8 c0 -8 -9
-15 -20 -15 -20 0 -26 11 -13 23 12 13 33 7 33 -8z m-517 -49 c3 -8 -2 -16
-11 -18 -24 -7 -42 1 -42 18 0 18 46 18 53 0z m394 -19 c-5 -15 -19 -18 -36
-8 -8 5 -11 16 -8 25 5 14 11 15 27 6 12 -6 20 -16 17 -23z m-6667 2 c0 -12
-47 -12 -54 0 -4 5 0 11 6 14 18 5 48 -3 48 -14z m92 -61 c-9 -9 -15 -9 -24 0
-9 9 -7 12 12 12 19 0 21 -3 12 -12z m6028 8 c0 -3 -4 -8 -10 -11 -5 -3 -10
-1 -10 4 0 6 5 11 10 11 6 0 10 -2 10 -4z m410 -16 c0 -5 -7 -10 -15 -10 -8 0
-15 5 -15 10 0 6 7 10 15 10 8 0 15 -4 15 -10z m-5811 -59 c18 -32 -15 -44
-44 -15 -13 14 -14 19 -3 25 21 14 37 10 47 -10z m5006 -67 c13 -14 14 -19 3
-25 -31 -20 -66 -4 -54 26 7 20 31 19 51 -1z m-5061 -50 c25 -10 19 -34 -9
-34 -24 0 -34 18 -18 33 8 8 8 8 27 1z m146 -82 c0 -15 -24 -32 -47 -32 -22 0
-31 19 -16 33 9 10 63 9 63 -1z m570 -2 c0 -5 -4 -10 -10 -10 -5 0 -10 5 -10
10 0 6 5 10 10 10 6 0 10 -4 10 -10z m278 -62 c-3 -7 -13 -13 -23 -13 -10 0
-20 6 -22 13 -3 7 5 12 22 12 17 0 25 -5 23 -12z m-683 -18 c-3 -5 -13 -10
-21 -10 -8 0 -14 5 -14 10 0 6 9 10 21 10 11 0 17 -4 14 -10z m3575 -55 c0 -8
-7 -15 -16 -15 -14 0 -14 3 -4 15 7 8 14 15 16 15 2 0 4 -7 4 -15z m-3202 -12
c2 -8 -6 -13 -22 -13 -25 0 -33 10 -19 24 10 10 36 3 41 -11z m4022 1 c0 -9
-5 -14 -12 -12 -18 6 -21 28 -4 28 9 0 16 -7 16 -16z m-3332 -121 c4 -16 -22
-27 -43 -19 -22 8 -6 38 18 34 11 -2 22 -9 25 -15z m2852 -13 c0 -5 -9 -10
-20 -10 -11 0 -20 5 -20 10 0 6 9 10 20 10 11 0 20 -4 20 -10z"/>
<path d="M14300 23818 c-10 -4 -24 -17 -31 -30 -7 -13 -16 -26 -21 -29 -6 -3
-92 -4 -192 -1 -192 5 -256 0 -256 -22 0 -6 -6 -21 -14 -31 -13 -18 -27 -19
-188 -17 -95 1 -179 -2 -186 -7 -8 -4 -19 -19 -26 -32 -10 -22 -20 -24 -93
-29 -86 -5 -89 -7 -107 -42 -12 -24 -19 -25 -193 -27 -42 -1 -51 -7 -91 -55
-10 -12 -32 -16 -87 -16 -55 0 -77 -4 -87 -16 -43 -52 -42 -51 -122 -46 l-76
5 -15 -37 c-8 -20 -19 -36 -23 -37 -4 0 -40 -1 -80 -2 -68 -2 -75 -4 -103 -35
-28 -30 -35 -33 -70 -27 -36 6 -39 5 -64 -35 l-26 -42 -79 7 -79 7 -18 -39
c-18 -38 -19 -38 -71 -35 -52 3 -53 3 -67 -32 -15 -35 -17 -36 -68 -36 -51 0
-54 -2 -70 -34 -15 -32 -20 -35 -68 -38 -46 -3 -54 -6 -69 -33 -15 -27 -21
-30 -69 -30 -52 0 -53 -1 -65 -35 -7 -21 -22 -40 -38 -48 -16 -7 -33 -22 -38
-33 -8 -14 -21 -19 -54 -19 -38 0 -47 -4 -70 -35 -23 -30 -33 -35 -67 -35 -28
0 -44 -6 -57 -22 -9 -11 -25 -28 -35 -37 -10 -9 -32 -30 -50 -48 -25 -25 -42
-33 -77 -35 -33 -2 -47 -8 -55 -23 -5 -11 -29 -39 -52 -63 -38 -37 -48 -42
-89 -42 -42 0 -46 -2 -59 -35 -8 -19 -25 -40 -37 -46 -33 -17 -87 -70 -104
-101 -13 -25 -20 -28 -64 -28 -44 0 -51 -3 -67 -30 -9 -16 -21 -30 -24 -30 -7
0 -107 -99 -232 -230 -42 -44 -53 -50 -89 -50 -37 0 -46 -6 -94 -57 -30 -32
-58 -62 -63 -67 -5 -4 -17 -17 -27 -27 -11 -10 -43 -43 -73 -71 -29 -29 -61
-61 -70 -72 -9 -10 -22 -24 -29 -30 -7 -6 -20 -18 -29 -27 -96 -102 -121 -127
-129 -130 -5 -2 -20 -19 -33 -36 -12 -18 -31 -33 -41 -33 -22 0 -30 -19 -30
-76 0 -38 -4 -46 -25 -56 -13 -6 -27 -19 -30 -29 -4 -10 -19 -26 -36 -36 -16
-10 -32 -25 -35 -35 -3 -10 -19 -25 -35 -33 -16 -9 -29 -19 -29 -24 0 -10 -95
-111 -104 -111 -4 0 -29 -22 -56 -50 -45 -44 -50 -53 -50 -94 0 -40 -4 -47
-28 -60 -15 -8 -34 -26 -42 -40 -7 -14 -19 -26 -26 -26 -24 0 -44 -31 -44 -71
0 -34 -6 -45 -52 -89 -29 -27 -64 -61 -78 -74 -14 -13 -37 -30 -52 -37 -25
-11 -28 -17 -28 -65 0 -45 -3 -55 -22 -65 -33 -17 -38 -28 -38 -82 0 -40 -4
-49 -22 -56 -13 -5 -33 -23 -46 -40 -12 -17 -29 -31 -36 -31 -18 0 -26 -22
-26 -68 0 -45 -6 -55 -45 -73 -28 -14 -30 -17 -27 -67 4 -48 2 -53 -22 -62
-15 -5 -31 -21 -38 -35 -6 -14 -22 -28 -35 -31 -30 -8 -43 -33 -43 -82 0 -35
-4 -43 -36 -62 l-37 -21 6 -72 c7 -80 3 -91 -36 -106 -24 -10 -27 -15 -27 -61
0 -47 -2 -52 -34 -71 -30 -17 -34 -25 -38 -71 -3 -31 -11 -54 -19 -57 -7 -2
-23 -14 -35 -27 -18 -17 -22 -30 -18 -56 5 -37 1 -46 -40 -72 -28 -18 -29 -19
-23 -92 4 -51 2 -78 -6 -84 -7 -6 -23 -18 -35 -28 -21 -16 -24 -26 -24 -91 -1
-41 -6 -77 -12 -82 -6 -5 -22 -18 -36 -28 -22 -17 -25 -27 -26 -93 -2 -97 -2
-98 -17 -98 -31 0 -46 -35 -49 -115 -3 -72 -5 -81 -26 -90 -31 -14 -44 -62
-42 -153 3 -110 3 -109 -30 -120 -38 -14 -44 -41 -37 -159 l7 -94 -34 -14
c-43 -18 -46 -32 -39 -232 l6 -162 -26 -10 c-14 -6 -31 -20 -38 -32 -13 -26
-18 -395 -6 -446 9 -33 -4 -53 -49 -79 -18 -11 -19 -33 -22 -675 -1 -365 0
-674 3 -686 3 -13 11 -23 19 -23 7 0 21 -9 30 -19 16 -18 17 -43 15 -255 -3
-247 -3 -247 43 -270 23 -12 23 -14 23 -176 1 -215 -1 -204 41 -229 l37 -22
-7 -93 c-8 -105 1 -142 39 -156 28 -11 28 -6 25 -120 -2 -90 10 -140 34 -140
29 0 40 -31 38 -104 -3 -77 0 -83 40 -108 25 -17 27 -22 26 -94 -1 -68 2 -80
21 -95 12 -10 26 -19 33 -21 7 -3 10 -31 9 -81 -2 -80 4 -94 55 -123 16 -9 18
-21 16 -87 -3 -79 -3 -79 52 -125 9 -7 16 -26 16 -42 0 -42 9 -59 41 -76 27
-13 29 -19 29 -69 0 -50 2 -55 25 -61 31 -8 45 -32 45 -78 0 -20 7 -41 16 -48
54 -44 53 -43 47 -117 l-6 -70 37 -21 c33 -20 36 -26 36 -65 0 -45 15 -69 50
-80 11 -3 23 -17 26 -30 3 -13 17 -31 30 -40 19 -12 24 -24 24 -59 0 -43 15
-66 53 -79 13 -5 17 -18 17 -57 0 -49 1 -52 35 -66 20 -8 41 -26 47 -39 6 -14
21 -31 34 -40 17 -11 24 -26 26 -62 3 -40 7 -49 33 -63 26 -15 30 -23 31 -61
1 -24 2 -49 3 -54 0 -6 17 -17 36 -24 19 -7 35 -17 35 -23 0 -6 29 -39 64 -74
60 -58 65 -66 68 -111 2 -35 8 -50 23 -58 11 -5 41 -31 68 -57 41 -40 47 -51
47 -88 0 -35 4 -43 30 -58 17 -9 32 -24 35 -32 5 -15 44 -55 153 -160 28 -28
52 -55 52 -59 0 -5 16 -18 35 -30 33 -19 36 -25 33 -61 -2 -38 2 -44 52 -88
78 -67 370 -361 370 -372 0 -5 9 -12 20 -15 11 -4 27 -19 35 -35 8 -16 23 -31
33 -34 10 -4 25 -17 31 -30 7 -13 24 -30 38 -37 14 -7 31 -26 39 -41 8 -15 21
-28 30 -28 8 0 24 -16 35 -35 22 -37 26 -38 73 -35 21 1 38 -7 62 -32 19 -18
41 -40 51 -49 10 -9 38 -39 62 -67 25 -29 52 -54 61 -57 10 -3 24 -23 33 -45
l15 -40 47 6 46 7 62 -67 c35 -36 67 -66 72 -66 6 -1 19 -15 30 -33 17 -27 27
-33 64 -35 37 -3 50 -11 97 -59 30 -30 54 -59 54 -64 0 -5 20 -9 44 -9 42 0
76 -18 76 -40 0 -5 13 -16 30 -25 16 -8 37 -29 45 -45 14 -27 21 -30 61 -30
41 0 47 -3 65 -35 19 -32 25 -35 66 -35 41 0 50 -4 92 -49 25 -26 51 -56 57
-67 8 -14 23 -18 59 -19 43 0 50 -3 65 -30 14 -25 24 -31 61 -33 52 -4 69 -16
69 -49 0 -23 2 -24 61 -22 58 2 63 1 88 -29 15 -19 35 -32 48 -32 34 0 73 -18
73 -34 0 -8 7 -22 17 -31 13 -14 32 -16 96 -13 80 3 80 3 97 -27 14 -26 24
-31 68 -35 28 -3 52 -8 54 -10 2 -3 12 -17 21 -32 16 -26 22 -27 99 -30 74 -3
84 -5 94 -26 17 -35 21 -37 107 -42 77 -5 83 -7 95 -32 16 -34 46 -42 120 -34
63 7 72 3 89 -36 12 -27 16 -28 85 -30 40 -1 92 0 115 1 36 2 44 -1 60 -26 26
-41 31 -43 115 -43 74 0 78 -1 95 -28 10 -15 22 -30 28 -34 5 -4 90 -8 188 -8
l177 0 13 -27 c6 -16 16 -32 22 -36 5 -4 106 -7 224 -5 174 2 215 0 219 -11
10 -31 41 -48 98 -54 73 -8 1344 -1 1351 7 4 3 14 18 23 33 l17 28 212 0 c209
0 213 0 231 23 10 12 20 27 22 32 2 7 74 11 186 13 l183 2 27 33 c26 31 29 32
103 32 l75 0 17 35 17 35 125 0 126 0 10 30 c12 34 9 33 102 34 61 1 71 4 88
26 10 14 24 31 29 38 8 9 30 10 79 6 72 -7 72 -7 119 50 9 11 30 16 70 16 79
0 100 8 118 42 14 27 18 28 66 26 49 -3 53 -1 67 27 20 41 30 46 78 40 70 -10
110 2 132 41 19 31 24 34 68 34 43 0 50 3 65 30 16 28 20 30 82 30 l65 0 3 33
c3 31 4 32 56 35 49 3 53 5 67 38 13 31 17 34 57 34 49 0 57 4 81 43 14 22 25
27 59 27 34 0 47 6 78 38 89 88 94 92 133 92 32 0 41 5 58 35 11 19 28 37 38
40 10 3 28 19 40 36 20 27 26 30 60 24 38 -6 71 11 71 37 0 6 21 30 47 54 40
38 53 44 90 44 34 0 46 5 59 25 9 14 49 59 89 100 72 74 74 75 124 75 47 0 51
2 66 35 10 19 26 37 36 40 11 4 26 19 34 35 8 16 23 31 33 34 10 3 26 19 35
36 15 25 24 30 57 30 38 0 48 8 214 172 96 95 181 178 188 185 12 11 41 40 71
71 6 7 74 76 150 152 75 77 137 144 137 149 0 6 16 17 35 25 33 14 35 17 35
65 0 41 4 52 21 61 26 14 89 77 111 112 10 15 26 29 37 33 11 3 23 15 26 26 4
10 19 26 35 34 16 8 31 24 35 34 3 11 21 29 40 40 31 18 35 25 35 60 0 24 6
45 15 53 9 7 21 19 28 27 7 8 26 28 43 45 17 18 36 42 43 53 6 12 23 28 39 35
22 11 28 21 32 60 3 26 8 49 10 51 3 2 17 11 33 20 15 10 27 23 27 29 0 6 16
26 36 44 30 28 35 38 29 62 -5 26 0 36 49 83 30 30 61 60 70 67 10 8 16 29 16
56 0 38 4 47 35 70 31 24 35 32 35 71 0 42 2 46 38 63 35 16 37 20 37 64 0 39
5 51 33 78 17 18 32 36 32 40 0 4 14 13 30 20 28 11 30 16 30 62 0 45 3 50 35
69 31 19 35 26 35 63 0 42 21 76 47 76 17 0 23 27 23 110 0 76 1 79 28 92 23
11 27 20 30 61 3 42 7 51 35 67 28 17 33 26 37 72 4 41 10 55 26 63 52 26 56
34 49 110 l-7 72 33 26 c34 26 34 27 34 108 0 46 5 84 10 86 56 19 60 26 61
103 1 103 0 100 34 111 34 12 46 53 36 125 -5 36 -2 48 14 64 11 11 27 20 35
20 22 0 28 42 22 147 l-5 94 34 22 c37 24 39 30 34 168 l-2 75 36 27 36 28 2
182 c3 180 3 182 27 193 13 7 28 18 32 26 5 7 9 117 9 243 -1 127 -1 238 -1
248 1 10 12 22 26 27 14 5 29 20 34 32 5 13 8 325 7 693 l-1 670 -25 3 c-14 2
-29 8 -34 13 -6 5 -9 112 -7 257 2 262 2 265 -44 274 -19 3 -20 11 -20 193 l0
190 -37 18 -38 19 0 114 c0 113 0 114 -27 131 -16 10 -31 22 -35 28 -4 5 -8
56 -8 112 0 109 -5 133 -25 133 -8 0 -21 7 -29 16 -13 12 -14 29 -9 89 l6 73
-41 26 -41 26 6 70 6 70 -38 35 c-36 32 -38 38 -36 86 1 28 4 56 7 60 11 19
-9 50 -43 64 l-35 15 7 75 7 75 -36 35 c-28 26 -36 41 -36 69 0 36 -21 66 -45
66 -23 0 -36 36 -29 80 6 39 5 40 -29 55 l-36 15 -3 87 c-3 85 -4 87 -33 103
-25 14 -31 24 -33 61 -3 35 -10 50 -39 76 -30 28 -35 37 -29 64 5 24 1 35 -20
53 -15 13 -34 31 -43 40 -9 9 -28 29 -43 44 -22 21 -28 36 -28 69 0 35 -5 45
-27 60 -38 24 -43 32 -43 80 0 37 -4 43 -36 62 -34 20 -36 24 -31 61 5 40 -7
59 -46 73 -9 4 -22 18 -27 31 -5 14 -20 32 -34 41 -20 13 -26 26 -28 63 -3 40
-7 49 -32 60 -15 8 -35 27 -44 43 -9 15 -27 32 -39 38 -18 8 -22 20 -25 63 -3
46 -6 54 -30 66 -15 7 -35 26 -45 42 -9 17 -25 32 -34 35 -8 3 -22 17 -29 30
-7 14 -17 25 -21 25 -21 0 -39 35 -39 76 0 40 -3 47 -35 65 -19 11 -37 29 -40
40 -4 10 -11 19 -16 19 -8 0 -76 59 -111 97 -4 5 -37 39 -73 77 -60 63 -65 72
-65 112 0 35 -4 46 -22 55 -13 6 -38 25 -55 43 -18 17 -40 38 -50 47 -10 9
-26 25 -35 35 -10 10 -25 26 -34 35 -9 9 -25 26 -36 37 -11 11 -24 24 -29 28
-5 5 -81 81 -168 169 -88 88 -165 165 -173 171 -7 6 -20 21 -28 33 -8 11 -20
21 -27 21 -7 0 -21 15 -30 34 -16 35 -36 46 -84 46 -17 0 -32 9 -43 24 -8 14
-25 27 -36 31 -11 4 -27 19 -35 35 -8 16 -24 31 -35 35 -11 4 -27 19 -35 35
-8 16 -24 31 -35 35 -11 4 -27 20 -35 36 -13 25 -21 29 -56 29 -47 0 -79 14
-79 36 0 8 -11 19 -23 25 -13 6 -31 24 -41 39 -9 16 -25 32 -35 35 -11 3 -29
21 -40 40 -18 32 -25 35 -65 35 -37 0 -48 4 -62 25 -9 13 -24 27 -34 30 -10 3
-28 21 -39 40 -18 32 -25 35 -65 35 -39 0 -49 4 -68 30 -12 17 -28 30 -35 30
-8 0 -23 15 -34 34 -17 29 -27 35 -70 41 -33 5 -53 13 -59 26 -6 10 -30 38
-53 62 -32 34 -52 45 -86 51 -30 4 -52 16 -71 36 -21 22 -37 30 -63 30 -43 0
-67 8 -67 24 -1 27 -22 41 -72 46 -45 4 -55 9 -66 32 -13 28 -30 35 -91 40
-30 3 -36 8 -43 36 -9 33 -10 33 -52 27 -52 -8 -81 5 -90 40 -7 27 -11 28
-117 25 -66 -2 -66 -2 -87 34 -20 34 -25 36 -71 36 -46 0 -52 3 -66 30 -15 29
-18 30 -86 30 -87 0 -109 10 -109 52 l0 31 -89 -5 c-49 -3 -93 -3 -98 1 -5 3
-14 18 -20 32 -9 22 -20 27 -61 33 -27 3 -57 4 -66 0 -31 -12 -63 4 -73 38
l-9 33 -113 -4 -114 -3 -33 36 c-33 36 -34 36 -113 36 -71 0 -80 2 -86 20 -14
46 -43 52 -217 49 -90 -2 -169 1 -176 5 -7 4 -17 19 -22 32 l-10 24 -218 0
c-226 0 -242 3 -242 42 0 10 -6 21 -13 24 -20 7 -1396 10 -1417 2z m1401 -159
l25 -31 208 0 c154 0 210 -4 219 -13 7 -7 20 -22 29 -34 17 -20 27 -21 191
-21 l173 0 31 -35 c31 -34 33 -35 107 -35 73 0 75 -1 93 -30 9 -17 26 -30 38
-31 11 -1 62 -2 113 -3 l93 -1 28 -34 c27 -33 30 -34 97 -33 72 1 104 -9 104
-33 0 -24 35 -35 106 -35 64 0 69 -2 100 -35 30 -34 34 -35 102 -35 67 0 72
-2 95 -31 21 -26 33 -33 76 -37 44 -4 54 -9 66 -32 17 -32 39 -40 120 -40 55
0 63 -3 87 -30 21 -24 34 -30 66 -30 34 0 44 -5 66 -35 23 -30 33 -35 68 -35
35 0 47 -6 74 -35 26 -29 39 -35 73 -35 35 0 43 -4 55 -29 15 -29 40 -41 86
-41 16 0 36 -12 52 -30 19 -22 35 -30 60 -30 28 0 46 -12 107 -70 59 -57 78
-70 105 -70 24 0 41 -9 63 -32 17 -18 37 -38 44 -44 8 -6 22 -21 31 -33 12
-14 29 -21 52 -21 36 0 78 -32 157 -119 13 -14 31 -21 55 -21 31 0 45 -9 99
-64 35 -35 69 -68 77 -72 7 -5 21 -21 31 -36 14 -23 25 -28 57 -28 39 0 47 -7
175 -135 120 -120 139 -135 168 -135 32 0 65 -25 142 -109 6 -6 51 -51 100
-101 102 -101 95 -94 175 -175 67 -68 58 -59 127 -124 28 -27 56 -59 63 -70 6
-12 17 -21 25 -21 19 0 35 -32 35 -70 0 -28 21 -53 170 -201 164 -162 170
-170 170 -209 0 -32 5 -43 28 -57 15 -10 31 -23 35 -31 5 -7 36 -40 70 -74 53
-53 62 -68 67 -107 4 -38 10 -48 33 -59 15 -7 27 -17 27 -21 0 -5 18 -27 40
-50 33 -34 40 -48 40 -81 0 -34 4 -42 29 -55 16 -8 32 -24 36 -35 3 -11 19
-29 35 -40 24 -17 29 -29 32 -68 2 -37 8 -49 27 -58 32 -16 41 -32 41 -74 0
-27 7 -41 32 -61 25 -21 33 -36 37 -75 5 -38 11 -51 30 -60 13 -7 31 -24 41
-39 9 -14 27 -33 39 -41 15 -11 21 -26 21 -50 0 -42 15 -74 35 -74 20 0 35
-32 35 -74 0 -35 5 -43 45 -71 17 -12 20 -23 17 -85 -3 -71 -2 -72 33 -104 29
-27 35 -39 35 -74 0 -34 5 -45 28 -59 37 -24 42 -32 42 -75 0 -30 6 -42 35
-63 34 -27 34 -27 33 -103 -1 -74 0 -76 33 -103 33 -27 34 -30 34 -99 0 -69 1
-73 33 -99 30 -26 32 -31 32 -95 0 -76 10 -103 46 -116 23 -9 24 -14 24 -95 0
-81 1 -85 28 -102 15 -10 30 -22 34 -28 4 -5 8 -58 8 -117 0 -106 0 -108 28
-125 15 -10 30 -22 34 -27 4 -6 4 -54 1 -107 -6 -93 -5 -98 19 -122 13 -13 30
-26 37 -28 10 -4 12 -47 11 -186 l-1 -182 36 -26 35 -27 0 -244 c0 -209 2
-245 16 -256 59 -49 54 15 54 -680 0 -348 -4 -638 -8 -643 -4 -6 -19 -18 -34
-28 l-28 -17 0 -245 c0 -183 -3 -247 -12 -255 -7 -6 -22 -17 -33 -25 -19 -12
-20 -26 -22 -182 -1 -92 -2 -176 -2 -186 -1 -10 -12 -22 -25 -27 -41 -15 -49
-44 -43 -144 6 -91 -2 -126 -28 -126 -26 0 -35 -37 -35 -144 l0 -105 -35 -27
c-34 -26 -35 -28 -35 -97 0 -68 -1 -72 -35 -103 -36 -33 -39 -46 -35 -138 1
-32 -4 -43 -36 -72 l-37 -34 6 -65 c4 -45 3 -68 -6 -75 -7 -5 -23 -18 -37 -29
-22 -17 -24 -26 -25 -92 0 -77 -7 -99 -30 -99 -19 0 -35 -32 -35 -70 0 -38
-16 -70 -35 -70 -19 0 -35 -31 -35 -69 0 -39 -9 -61 -26 -61 -28 0 -45 -45
-42 -114 2 -65 1 -68 -30 -92 -27 -22 -32 -32 -32 -69 0 -37 -5 -46 -35 -69
-29 -23 -35 -33 -35 -65 0 -28 -7 -44 -27 -63 -16 -15 -37 -37 -48 -50 -12
-12 -29 -28 -39 -33 -12 -7 -20 -26 -23 -58 -5 -38 -12 -52 -34 -68 -24 -17
-29 -27 -29 -63 0 -38 -5 -47 -35 -70 -30 -23 -35 -33 -35 -68 0 -35 -6 -46
-49 -87 -26 -25 -56 -50 -65 -56 -11 -6 -19 -28 -23 -55 -5 -46 -15 -60 -95
-139 -28 -27 -38 -45 -38 -68 0 -24 -10 -42 -35 -67 -19 -20 -35 -40 -35 -46
0 -6 -11 -15 -23 -21 -13 -6 -31 -24 -41 -40 -9 -16 -23 -29 -31 -29 -23 0
-44 -40 -38 -71 5 -26 -9 -43 -166 -198 -157 -155 -171 -172 -171 -205 0 -33
-23 -58 -350 -385 -325 -326 -353 -351 -385 -351 -24 0 -41 -8 -60 -27 -14
-15 -25 -31 -25 -35 0 -5 -5 -8 -11 -8 -6 0 -39 -29 -74 -65 -57 -60 -65 -65
-104 -65 -36 0 -44 -4 -59 -29 -9 -16 -29 -37 -44 -45 -15 -9 -29 -25 -33 -35
-3 -10 -16 -24 -30 -31 -14 -7 -32 -24 -40 -37 -10 -15 -25 -23 -45 -23 -41 0
-76 -18 -89 -46 -6 -14 -22 -29 -36 -34 -14 -5 -25 -14 -25 -19 0 -21 -33 -41
-66 -41 -27 0 -43 -9 -74 -40 -22 -22 -43 -40 -48 -40 -5 0 -14 -11 -21 -24
-10 -18 -24 -25 -57 -29 -39 -4 -52 -13 -107 -71 -56 -58 -68 -66 -101 -66
-29 0 -43 -7 -65 -31 -20 -22 -41 -32 -70 -36 -31 -4 -48 -13 -63 -33 -15 -21
-31 -29 -66 -33 -36 -4 -52 -12 -71 -36 -21 -25 -34 -31 -64 -31 -32 0 -44 -6
-70 -35 -25 -28 -38 -35 -69 -35 -36 0 -47 -6 -86 -54 -9 -12 -32 -16 -85 -16
-78 0 -88 -4 -105 -36 -8 -15 -25 -23 -59 -28 -37 -5 -54 -13 -74 -37 -24 -30
-29 -31 -102 -33 -75 -1 -79 -2 -103 -34 -24 -31 -28 -32 -96 -32 -68 0 -72
-1 -102 -35 -31 -34 -35 -35 -104 -35 -68 0 -73 -1 -107 -35 l-35 -36 -101 2
-102 2 -26 -31 c-25 -30 -30 -32 -95 -32 -65 0 -70 -1 -100 -35 l-32 -35 -177
0 -176 0 -28 -35 -28 -35 -210 0 -210 0 -26 -31 -25 -31 -675 0 c-371 1 -677
1 -681 2 -4 0 -14 14 -23 30 l-16 30 -212 0 -213 0 -31 35 -31 35 -174 0 -173
0 -27 32 c-25 31 -31 33 -101 36 -68 4 -78 7 -101 33 -26 29 -28 29 -132 29
l-106 0 -31 35 c-30 34 -33 35 -103 35 -74 0 -90 7 -113 48 -7 13 -27 17 -88
20 -73 3 -80 5 -105 35 -25 30 -32 32 -95 34 -37 1 -74 2 -80 3 -7 0 -19 14
-28 30 -14 26 -21 30 -60 30 -33 0 -50 6 -65 22 -11 12 -20 25 -20 29 0 15
-71 30 -114 24 -41 -7 -46 -5 -76 29 -27 29 -40 36 -71 36 -22 0 -44 6 -51 15
-37 44 -54 55 -87 55 -28 0 -42 7 -62 31 -20 24 -35 32 -72 36 -38 5 -52 12
-68 34 -17 24 -28 29 -60 29 -36 0 -46 7 -104 66 -57 59 -70 67 -110 72 -38 4
-49 10 -60 33 -12 22 -24 29 -61 35 -39 6 -56 16 -111 70 -54 53 -72 64 -99
64 -29 0 -45 11 -104 70 -60 60 -75 70 -105 70 -31 0 -46 11 -135 100 -91 93
-102 100 -138 100 -31 0 -41 5 -52 25 -7 13 -21 27 -31 30 -10 4 -26 19 -36
36 -10 16 -24 31 -33 34 -9 3 -24 18 -33 35 -10 16 -23 30 -28 30 -5 0 -27 18
-49 40 -29 30 -47 40 -70 40 -27 0 -52 20 -168 135 -75 74 -141 139 -147 145
-5 6 -85 86 -177 179 -148 147 -168 172 -168 200 0 39 -16 71 -35 71 -7 0 -23
13 -34 28 -11 16 -40 49 -65 73 -25 24 -51 50 -58 56 -7 7 -24 23 -36 35 -13
13 -31 31 -40 42 -10 10 -29 30 -44 44 -21 19 -28 35 -28 63 0 23 -6 43 -16
51 -18 15 -44 41 -91 92 -22 24 -33 45 -33 66 0 25 -17 47 -100 130 -93 93
-100 103 -100 140 0 32 -5 43 -27 57 -39 24 -43 32 -43 81 0 37 -4 45 -29 60
-17 9 -35 27 -40 40 -6 12 -22 27 -35 32 -21 8 -25 16 -28 61 -3 47 -6 54 -33
69 -26 14 -31 24 -35 70 -4 31 -11 55 -19 58 -7 2 -35 26 -62 52 -41 40 -49
53 -49 84 0 36 -16 59 -56 82 -17 10 -19 21 -16 92 3 79 2 81 -25 99 -37 23
-43 32 -43 71 0 30 -8 42 -54 80 -10 8 -16 29 -16 56 0 38 -4 47 -35 70 -31
24 -35 32 -35 71 0 39 -4 46 -30 60 -32 16 -33 21 -30 113 1 49 -1 55 -34 86
-35 32 -36 34 -36 109 0 73 -1 77 -27 94 -41 26 -43 31 -43 108 0 67 -1 71
-32 97 -31 25 -33 30 -30 85 3 69 -11 106 -44 121 -23 11 -24 14 -24 126 l0
115 -35 27 -35 26 0 109 0 108 -34 26 -35 26 2 176 2 176 -34 28 -34 28 -2
238 c-1 131 -5 246 -9 255 -4 10 -16 20 -26 23 -10 3 -21 13 -24 22 -11 28 -7
1288 4 1291 5 2 20 12 32 22 23 18 23 21 24 257 0 131 1 244 2 251 1 7 13 17
27 22 39 15 45 47 40 220 -5 173 -7 161 49 208 13 10 16 35 16 119 l0 107 35
32 35 32 0 110 c0 102 2 111 20 117 33 11 52 49 50 102 -4 78 -1 87 30 105 29
17 30 19 30 96 0 79 0 80 35 106 35 27 35 27 35 106 0 76 1 80 28 97 40 26 42
31 42 110 0 68 2 74 28 90 15 9 29 18 31 19 2 2 5 24 6 51 3 39 9 52 34 73 24
19 31 33 31 58 0 40 15 72 35 72 20 0 35 32 35 74 0 35 5 43 45 71 16 11 21
28 25 96 5 76 7 85 29 95 32 16 41 32 41 77 0 32 7 44 49 85 27 26 57 53 65
60 10 8 16 29 16 52 0 24 6 44 16 52 48 40 54 49 54 88 0 30 5 43 23 55 13 8
29 26 35 40 6 13 25 31 42 40 27 14 30 21 30 60 0 39 4 47 35 71 29 22 35 33
35 65 0 36 7 46 84 122 46 45 91 87 100 92 11 6 19 27 22 55 3 32 12 51 31 70
16 15 35 35 44 46 9 10 26 27 38 36 14 12 21 29 21 54 0 31 9 45 63 99 34 35
83 85 109 112 26 26 57 57 70 69 13 11 43 43 68 71 25 27 55 55 68 62 17 9 22
20 22 52 0 40 5 46 251 290 229 227 254 249 285 249 23 0 40 7 52 22 9 11 25
28 35 37 10 9 29 27 42 41 14 14 28 28 32 32 18 17 141 140 180 181 19 19 36
27 61 27 31 0 46 11 134 100 86 87 103 100 133 100 28 0 45 11 104 70 60 59
77 70 105 70 29 0 45 11 98 62 50 49 72 63 108 70 32 6 51 17 68 38 18 23 31
30 58 30 31 0 45 10 104 70 64 65 71 70 112 70 38 0 46 4 61 30 15 25 24 30
59 30 33 0 46 6 72 35 26 28 40 35 70 35 31 0 44 7 69 35 25 28 38 35 68 35
37 0 59 14 78 48 7 13 25 17 68 19 32 1 66 2 76 2 10 1 30 14 45 30 19 20 40
30 72 34 34 4 51 13 70 36 24 29 29 31 95 31 77 0 82 2 108 43 17 26 20 27 93
25 70 -3 77 -1 95 22 10 14 24 31 29 38 7 7 38 12 85 12 71 0 74 1 98 32 l25
32 94 -3 c107 -2 138 6 157 43 14 25 19 26 92 26 77 0 78 0 105 35 l26 35 178
0 178 0 26 35 27 35 209 0 208 0 25 30 25 29 154 3 c84 2 389 2 678 0 l525 -2
26 -31z"/>
<path d="M14378 23532 c-9 -4 -26 -19 -38 -34 l-21 -28 -208 0 c-223 0 -211 3
-259 -55 -11 -12 -42 -15 -186 -15 l-174 0 -27 -36 -28 -37 -99 7 -100 7 -36
-38 c-35 -37 -37 -38 -109 -38 -71 0 -76 -1 -101 -32 -25 -29 -32 -31 -106
-36 -58 -3 -81 -8 -88 -20 -22 -39 -39 -47 -108 -47 -67 0 -71 -1 -101 -35
-31 -34 -34 -35 -102 -33 -64 2 -71 0 -92 -24 -29 -34 -57 -48 -94 -48 -22 0
-36 -8 -53 -30 -21 -29 -25 -30 -99 -30 -76 0 -77 0 -103 -35 -23 -29 -33 -35
-65 -35 -30 0 -44 -7 -70 -35 -26 -29 -39 -35 -71 -35 -38 0 -80 -26 -80 -49
0 -4 -21 -11 -47 -15 -42 -6 -55 -14 -108 -70 -48 -51 -68 -64 -100 -69 -26
-4 -49 -17 -68 -37 -22 -23 -37 -30 -66 -30 -35 0 -46 -7 -101 -64 -53 -54
-69 -64 -104 -68 -33 -4 -51 -16 -93 -57 -46 -45 -53 -57 -53 -91 0 -21 -6
-42 -12 -47 -7 -4 -43 -8 -79 -8 l-66 0 -65 -67 c-56 -60 -68 -68 -101 -68
-24 0 -43 -7 -54 -19 -10 -11 -23 -26 -30 -33 -7 -7 -104 -104 -216 -216 -195
-194 -206 -203 -246 -206 -31 -2 -47 -10 -59 -27 -21 -30 -230 -236 -259 -256
-18 -12 -23 -25 -23 -56 0 -39 -6 -47 -172 -215 -95 -96 -181 -182 -192 -191
-42 -36 -46 -44 -46 -80 0 -34 -8 -45 -100 -131 -93 -87 -100 -97 -100 -132 0
-34 -8 -46 -100 -138 -73 -72 -100 -106 -100 -124 0 -37 -19 -72 -46 -85 -20
-9 -24 -18 -24 -52 0 -38 -6 -47 -70 -111 -61 -60 -70 -74 -70 -106 0 -28 -7
-42 -35 -68 -29 -26 -35 -39 -35 -71 0 -32 -6 -43 -29 -60 -22 -17 -29 -32
-34 -69 -4 -37 -11 -52 -36 -71 -25 -20 -31 -32 -31 -63 0 -31 -6 -42 -35 -64
-31 -24 -35 -33 -35 -70 0 -38 -4 -47 -35 -70 -29 -22 -35 -33 -35 -65 0 -30
-7 -43 -35 -68 -28 -25 -35 -38 -35 -69 0 -30 -7 -44 -36 -71 l-36 -33 7 -68
7 -68 -36 -28 c-36 -27 -36 -28 -36 -101 0 -73 0 -74 -36 -102 l-36 -27 5 -70
5 -70 -41 -37 c-39 -36 -40 -37 -35 -95 6 -67 -4 -97 -38 -112 -30 -14 -39
-61 -30 -158 l7 -75 -36 -31 -35 -32 0 -106 0 -106 -35 -31 -35 -31 0 -176 0
-176 -27 -17 c-16 -10 -31 -22 -36 -28 -4 -5 -7 -104 -6 -219 2 -226 4 -214
-51 -246 -13 -8 -15 -97 -16 -706 -2 -759 -5 -707 51 -740 17 -10 19 -24 16
-200 -1 -104 1 -202 4 -217 4 -16 19 -34 36 -43 l29 -15 0 -179 c0 -194 -3
-181 54 -228 13 -10 16 -35 16 -119 l0 -107 34 -31 35 -31 -6 -96 -6 -96 41
-40 c40 -39 41 -42 35 -91 -7 -58 9 -107 38 -116 23 -8 33 -44 26 -90 -6 -36
8 -105 22 -105 4 0 16 -6 27 -14 16 -12 19 -27 19 -92 1 -63 4 -79 19 -88 50
-31 51 -32 51 -112 1 -74 2 -78 33 -104 20 -16 33 -37 33 -51 1 -50 10 -69 39
-84 26 -13 30 -21 30 -54 0 -53 8 -69 41 -87 25 -13 29 -20 29 -59 0 -28 6
-49 16 -57 47 -39 54 -50 54 -85 0 -29 7 -43 35 -69 29 -26 35 -39 35 -72 0
-34 5 -44 30 -62 26 -18 30 -28 30 -66 0 -40 3 -47 35 -65 32 -19 35 -25 35
-65 0 -32 6 -49 21 -62 11 -9 43 -39 70 -65 41 -40 49 -53 49 -84 0 -29 7 -43
35 -69 29 -26 35 -39 35 -73 0 -34 4 -43 25 -53 14 -6 25 -14 25 -18 0 -4 34
-42 75 -83 65 -67 75 -81 75 -112 0 -33 10 -45 100 -132 93 -89 100 -99 100
-134 0 -24 7 -45 18 -55 9 -9 86 -83 170 -165 138 -135 152 -152 152 -183 0
-32 19 -53 221 -255 200 -200 225 -222 262 -228 37 -6 60 -25 239 -205 181
-181 200 -198 232 -198 30 0 46 -11 133 -100 86 -88 102 -100 132 -100 29 0
45 -11 104 -70 60 -60 76 -70 105 -70 30 0 44 -10 99 -66 57 -58 70 -67 105
-69 30 -2 46 -10 66 -33 19 -21 39 -31 67 -35 34 -4 51 -15 101 -66 48 -49 68
-63 99 -67 25 -4 48 -15 61 -31 16 -18 37 -28 75 -34 29 -5 57 -15 61 -23 18
-32 41 -46 75 -46 27 0 41 -8 66 -35 30 -34 33 -35 102 -35 68 0 72 -1 105
-35 26 -27 42 -35 69 -35 27 0 42 -8 67 -35 30 -34 34 -35 102 -35 67 0 73 -2
101 -32 28 -30 33 -31 96 -30 65 1 68 -1 101 -36 33 -36 35 -37 103 -35 66 2
70 0 102 -33 31 -32 36 -34 104 -34 69 0 72 -1 102 -35 l31 -35 109 0 c106 0
110 -1 123 -24 19 -37 51 -44 225 -45 l160 -1 26 -32 27 -32 207 3 207 2 33
-35 33 -36 621 0 c683 0 620 -5 669 54 11 14 44 16 218 16 l205 0 29 32 29 31
176 1 176 1 27 33 27 32 108 0 c97 0 109 2 125 21 38 47 43 49 114 49 67 0 71
1 100 35 30 33 33 34 102 34 69 -1 71 0 101 35 30 35 31 35 101 33 70 -2 71
-2 106 35 35 38 36 38 97 32 60 -7 61 -7 95 30 29 30 42 36 75 36 34 0 44 5
67 35 26 34 28 35 101 35 69 0 76 2 101 29 19 21 41 32 71 37 30 5 52 16 69
35 19 21 34 29 60 29 27 0 42 8 68 35 25 27 41 35 68 35 29 0 45 10 105 70 59
59 75 70 104 70 25 0 43 9 70 35 27 26 45 35 69 35 28 0 45 11 98 65 55 54 70
65 99 65 29 0 44 10 96 64 50 52 69 65 104 71 37 6 56 21 142 106 87 87 103
99 134 99 32 0 51 16 232 200 187 191 199 200 235 200 24 0 44 7 56 19 55 60
328 334 376 378 48 45 56 58 56 89 0 31 9 45 68 103 37 38 88 90 114 117 26
27 85 86 132 132 77 73 86 86 86 118 0 32 9 45 70 103 62 60 70 71 70 105 0
34 8 46 100 136 90 88 100 101 100 133 0 21 7 42 16 49 48 40 54 49 54 87 0
35 7 45 64 99 55 51 65 66 71 105 5 33 14 50 36 66 22 17 29 30 29 57 0 42 15
74 35 74 20 0 35 32 35 74 0 34 6 43 43 69 11 8 20 30 24 57 4 34 13 51 36 71
24 21 31 35 33 70 2 35 8 48 33 68 25 21 31 34 31 64 0 32 6 44 35 70 28 24
35 38 35 67 0 29 7 43 35 67 34 30 35 33 35 104 0 71 1 73 36 106 l37 33 -6
66 -6 66 37 34 c36 33 37 35 35 101 -3 67 -2 68 35 100 37 32 37 33 37 108 0
73 1 76 33 101 l32 25 0 107 0 107 35 28 35 28 0 107 0 107 32 27 33 27 1 176
0 176 35 28 34 29 -2 240 -3 240 35 26 35 27 0 629 0 629 -35 27 -35 26 0 248
0 248 -36 27 -36 28 7 164 7 164 -38 36 -38 36 3 107 2 106 -35 28 -36 27 0
109 0 109 -36 28 c-36 27 -36 28 -30 85 7 66 -5 101 -40 117 -27 12 -27 12
-28 104 -1 64 -3 69 -38 101 -36 33 -37 36 -31 84 7 66 -2 100 -32 114 -32 14
-39 39 -36 114 3 60 2 62 -33 89 -31 24 -36 33 -36 69 0 36 -5 47 -35 73 -27
25 -35 39 -35 66 0 34 -14 57 -47 75 -10 6 -16 26 -18 53 -2 35 -9 48 -34 69
-24 21 -31 34 -31 64 0 29 -8 45 -35 73 -27 28 -35 44 -35 74 0 30 -6 42 -31
62 -23 18 -32 34 -36 68 -4 33 -14 52 -39 75 -26 24 -34 40 -34 66 0 29 -9 42
-65 93 -59 55 -65 64 -65 101 0 33 -6 46 -35 71 -28 25 -35 39 -35 68 0 33 -9
45 -100 133 -92 89 -100 100 -100 135 0 23 -7 43 -19 55 -10 9 -40 37 -66 62
-42 38 -49 50 -53 92 -3 34 -10 52 -23 59 -11 5 -116 107 -234 225 -195 195
-215 219 -215 249 0 30 -16 50 -156 189 -118 119 -161 156 -180 156 -14 0 -33
4 -43 9 -9 5 -121 113 -248 240 -210 209 -235 231 -266 231 -29 0 -46 13 -133
100 -89 89 -103 100 -135 100 -32 0 -44 8 -97 66 -53 57 -66 66 -104 71 -37 5
-52 15 -105 69 -54 56 -67 64 -99 64 -30 0 -44 7 -70 35 -24 27 -40 35 -65 35
-28 0 -44 11 -94 61 -61 62 -89 79 -129 79 -13 0 -31 12 -44 30 -19 24 -30 30
-62 30 -32 0 -46 7 -74 35 -27 26 -44 35 -70 35 -26 0 -43 9 -70 36 -36 36
-37 36 -97 30 -59 -7 -60 -7 -94 28 -19 20 -43 36 -54 36 -33 0 -72 19 -93 45
-18 23 -27 25 -93 25 -75 0 -78 1 -117 49 -15 18 -29 21 -92 21 -72 0 -75 1
-100 33 -24 31 -28 32 -102 34 -73 1 -77 2 -104 34 -25 31 -32 33 -101 37 -65
4 -76 7 -96 31 -20 25 -27 26 -132 31 -109 5 -111 5 -140 38 l-30 32 -174 0
-173 0 -31 35 -31 35 -207 0 -206 0 -33 35 -33 35 -609 -1 c-335 0 -617 -3
-626 -7z m2422 -2842 c50 -51 50 -51 50 -117 l0 -67 -51 -49 -51 -49 -303 3
c-315 3 -335 0 -335 -39 0 -9 16 -30 36 -49 36 -32 36 -33 29 -93 -7 -60 -7
-61 29 -93 29 -27 36 -41 36 -71 0 -31 7 -44 35 -69 34 -29 35 -33 35 -100 0
-65 2 -72 35 -108 26 -29 35 -48 35 -74 0 -26 7 -39 29 -56 22 -16 31 -32 36
-68 5 -34 14 -52 37 -72 29 -24 31 -29 29 -97 -1 -74 -1 -75 54 -121 14 -11
16 -27 13 -81 -3 -64 -6 -69 -48 -113 l-45 -47 -72 0 c-68 0 -74 2 -90 28 -9
15 -27 36 -39 47 -12 11 -24 37 -28 60 -4 29 -15 47 -38 66 -31 26 -32 28 -30
99 3 114 -29 131 -100 53 -123 -134 -146 -153 -184 -153 -32 0 -44 -8 -99 -65
-52 -55 -67 -65 -96 -65 -28 0 -46 -12 -106 -70 -60 -58 -78 -70 -105 -70 -28
0 -44 -11 -98 -65 -54 -54 -70 -65 -98 -65 -28 0 -44 -11 -103 -70 -61 -62
-74 -70 -106 -70 -33 0 -45 -8 -98 -64 -51 -53 -66 -64 -102 -69 -35 -4 -51
-15 -104 -71 -54 -57 -68 -66 -98 -66 -29 0 -45 -10 -102 -65 -59 -57 -72 -65
-106 -65 -44 0 -63 -14 -63 -45 0 -36 20 -45 97 -45 69 0 75 2 112 35 l38 35
135 0 135 0 32 35 31 35 172 0 172 0 32 36 33 35 100 -3 100 -3 121 120 c108
108 120 124 120 156 0 44 15 59 59 59 31 0 46 12 139 105 90 90 110 105 137
105 22 0 42 10 64 31 18 16 38 29 44 26 7 -2 13 -23 15 -48 2 -35 10 -50 38
-76 33 -31 34 -35 34 -104 l0 -72 52 -48 53 -49 101 0 101 0 47 -50 c45 -48
46 -50 46 -115 0 -65 -1 -67 -44 -111 -38 -37 -50 -44 -85 -44 -29 0 -44 -6
-55 -21 -18 -26 -11 -46 27 -78 25 -21 28 -30 27 -70 -4 -77 -1 -87 35 -124
26 -27 35 -45 35 -70 0 -26 8 -40 35 -65 l36 -31 -7 -65 -7 -65 37 -33 c35
-31 36 -33 36 -104 0 -72 1 -73 35 -100 30 -22 35 -32 35 -67 0 -34 6 -46 35
-72 33 -31 34 -34 32 -102 -2 -68 -1 -71 31 -97 25 -21 32 -36 32 -62 0 -28
10 -45 52 -89 l52 -55 76 0 76 0 52 55 c52 55 52 55 52 121 0 63 -2 68 -35 98
-34 31 -35 35 -35 105 0 71 -1 74 -35 104 -28 25 -35 38 -35 68 0 37 -5 45
-49 82 -19 15 -21 26 -19 86 3 70 3 70 -36 105 -38 35 -38 36 -32 90 8 60 -2
88 -41 119 -17 14 -23 29 -23 56 0 30 -7 44 -35 70 -34 30 -35 34 -35 101 0
66 -2 71 -35 104 -26 27 -35 44 -35 69 0 24 -9 43 -30 65 -27 29 -30 38 -30
98 0 60 -3 68 -30 96 -39 38 -50 60 -50 95 0 21 -9 36 -30 51 -29 22 -30 26
-30 97 0 75 -1 78 -49 118 -21 17 -22 25 -18 119 5 127 6 128 137 128 97 0 97
0 132 34 l35 35 302 -2 302 -2 28 -34 28 -35 137 3 136 2 35 -35 c34 -34 39
-36 104 -36 l68 0 70 -70 c60 -60 76 -70 105 -70 27 0 41 -7 59 -29 18 -22 35
-31 66 -34 39 -4 56 -18 292 -254 242 -242 251 -252 251 -289 0 -31 6 -44 31
-64 22 -19 32 -37 36 -67 4 -34 17 -52 69 -104 l64 -63 0 -70 c0 -67 1 -71 35
-102 l35 -32 0 -138 0 -138 33 -30 32 -31 -2 -230 c-1 -126 -2 -233 -2 -237
-1 -5 -14 -20 -31 -35 l-30 -26 0 -138 0 -139 -35 -31 c-34 -31 -35 -35 -35
-104 0 -69 -1 -72 -35 -102 -28 -25 -35 -39 -35 -69 0 -33 -8 -44 -65 -99 -57
-55 -65 -67 -65 -99 0 -34 -9 -46 -100 -135 -82 -80 -100 -103 -100 -127 0
-46 -25 -74 -67 -74 -31 0 -46 -11 -134 -100 -89 -90 -102 -100 -135 -100 -29
0 -43 -7 -68 -35 -25 -27 -40 -35 -67 -35 -26 0 -44 -9 -72 -35 -26 -25 -46
-35 -68 -35 -22 0 -44 -11 -72 -36 -37 -34 -42 -36 -88 -30 -54 7 -82 -3 -112
-41 -17 -21 -25 -23 -124 -23 l-106 0 -33 -36 -34 -36 -273 1 -272 1 -28 33
c-27 32 -28 32 -135 35 -106 4 -107 4 -145 39 -38 34 -41 35 -97 28 -58 -7
-59 -6 -95 29 -27 27 -44 36 -70 36 -26 0 -43 9 -69 35 -26 25 -44 35 -67 35
-22 0 -43 11 -70 35 -28 25 -49 35 -71 35 -29 0 -59 27 -280 248 -234 233
-248 249 -248 284 0 22 -7 43 -17 53 -101 93 -123 121 -123 157 0 29 -6 42
-32 62 -32 25 -33 28 -33 99 0 72 -1 74 -37 109 l-38 35 7 96 6 97 -37 33 -36
33 0 305 0 305 36 33 37 32 -6 96 -6 96 30 29 c38 39 49 60 49 97 0 31 -22 61
-44 61 -7 0 -30 -16 -51 -36 l-37 -37 -125 6 -124 7 -36 -35 -36 -35 -170 0
-169 0 -32 -35 -32 -35 -140 0 -140 0 -31 -35 -31 -35 -140 0 -141 0 -24 -31
-24 -31 -137 1 -137 2 -70 -71 c-60 -60 -75 -70 -104 -70 -30 0 -45 -10 -99
-65 -47 -48 -71 -65 -91 -65 -33 0 -64 -16 -88 -47 -16 -20 -27 -23 -90 -23
-72 0 -72 0 -119 46 -48 45 -48 46 -48 110 0 65 0 65 50 114 41 40 57 50 85
50 29 0 44 10 98 65 48 48 71 65 91 65 39 0 57 12 121 79 52 55 60 60 97 58
38 -1 68 19 68 46 0 4 -30 37 -66 71 -59 56 -67 68 -71 110 -3 25 -9 46 -12
46 -22 0 -51 44 -51 76 0 26 -8 43 -35 70 -27 27 -35 43 -35 71 0 31 -9 44
-65 98 -56 53 -65 67 -65 98 0 19 -3 42 -6 51 -10 27 -57 19 -89 -14 -26 -27
-34 -30 -95 -30 -62 0 -67 -2 -99 -35 -30 -33 -37 -35 -94 -35 -60 0 -61 1
-114 53 -52 51 -53 53 -53 112 1 63 4 70 62 124 25 23 49 35 75 38 27 2 45 12
63 33 23 28 30 30 88 30 69 0 97 10 125 47 13 16 29 23 53 23 26 0 44 9 71 35
35 33 39 35 109 35 69 0 74 1 94 30 13 19 30 30 45 30 37 0 69 15 103 49 26
27 38 31 82 31 61 0 76 -7 129 -61 39 -40 41 -45 41 -105 0 -62 -1 -64 -50
-114 -42 -41 -57 -50 -86 -50 -27 0 -42 -7 -62 -30 -21 -24 -34 -30 -67 -30
-23 0 -46 -5 -53 -12 -14 -14 -16 -68 -3 -68 5 0 34 -24 65 -54 49 -48 56 -60
56 -93 0 -32 6 -43 29 -60 21 -16 30 -33 34 -68 5 -34 14 -52 37 -71 23 -20
30 -34 30 -60 0 -28 10 -45 52 -89 l52 -55 73 0 73 0 62 65 c53 55 68 65 96
65 29 0 46 12 106 70 60 58 78 70 106 70 28 0 44 11 98 66 56 57 71 67 106 70
34 3 48 13 101 69 54 57 66 65 98 65 32 0 45 9 101 66 54 55 72 67 103 71 31
3 51 16 103 68 54 54 71 65 99 65 22 0 41 9 61 28 99 96 108 103 146 108 31 4
50 17 98 66 49 50 69 63 104 70 37 6 55 19 107 73 53 55 67 65 96 65 30 0 45
10 99 65 l65 65 76 0 c45 0 80 5 87 12 22 22 13 55 -22 82 -34 26 -35 27 -33
97 2 68 1 71 -31 97 -26 22 -32 34 -32 64 0 30 -7 44 -35 69 -34 31 -35 35
-35 102 0 68 -1 72 -35 103 -29 26 -35 39 -35 71 0 21 -5 44 -12 51 -9 9 -94
12 -320 12 l-308 0 -50 48 -50 48 0 69 0 69 51 48 51 48 805 0 804 0 49 -50z
m-4678 -2831 c30 -32 30 -32 149 -29 l87 2 32 -36 c27 -29 41 -36 70 -36 29 0
43 -7 67 -35 26 -29 38 -35 70 -35 31 0 43 -6 64 -32 22 -27 34 -32 70 -32 38
-1 44 -4 47 -24 3 -18 -7 -33 -40 -60 -24 -20 -56 -51 -73 -68 -21 -22 -42
-33 -72 -37 -36 -4 -51 -15 -104 -71 -55 -58 -67 -66 -99 -66 -31 0 -44 -9
-100 -65 -54 -54 -70 -65 -98 -65 -28 0 -45 -11 -103 -70 -59 -59 -76 -70
-104 -70 -29 0 -47 -13 -135 -100 -86 -85 -105 -100 -133 -100 -26 0 -44 -11
-87 -52 l-55 -52 0 -78 c0 -66 3 -80 20 -92 11 -7 37 -30 57 -50 34 -33 42
-36 93 -36 62 0 90 11 118 47 13 16 29 23 53 23 30 0 47 11 109 70 59 56 80
70 105 70 27 0 48 16 132 100 88 88 104 100 135 100 29 0 44 10 98 65 48 50
70 65 91 65 39 1 60 15 124 83 46 48 60 57 90 57 30 0 45 10 105 70 l69 70 62
0 c73 0 94 -15 94 -66 0 -26 8 -43 35 -70 27 -27 35 -43 35 -71 0 -29 7 -43
36 -70 35 -32 36 -34 30 -86 -8 -60 6 -103 35 -112 10 -3 21 -16 25 -27 5 -16
9 -401 5 -468 -1 -5 -14 -22 -31 -37 -22 -19 -30 -35 -30 -60 0 -25 -9 -43
-35 -70 -26 -27 -35 -45 -35 -70 0 -25 -9 -42 -35 -69 -27 -26 -35 -43 -35
-70 0 -32 -13 -48 -150 -184 -134 -133 -155 -150 -184 -150 -28 0 -44 -11 -97
-65 -49 -49 -71 -65 -92 -65 -35 0 -66 -16 -90 -47 -13 -16 -29 -23 -53 -23
-26 0 -44 -9 -71 -35 l-36 -35 -102 0 -101 0 -34 -35 -34 -35 -336 0 -336 0
-31 35 c-30 34 -34 35 -101 35 -65 0 -71 2 -105 35 -34 33 -40 35 -106 35 -66
0 -71 2 -94 31 -18 23 -34 32 -68 36 -38 5 -53 15 -107 69 -52 53 -68 64 -95
64 -30 0 -51 18 -185 151 -140 140 -152 155 -152 188 0 28 -7 42 -31 61 -23
19 -32 36 -36 70 -4 32 -14 52 -33 70 -20 18 -30 38 -33 69 -4 33 -13 50 -37
70 l-31 26 0 270 0 270 30 25 c21 18 31 37 36 73 6 36 14 52 35 67 21 15 29
30 33 66 4 37 11 52 36 71 25 20 31 32 31 62 0 35 11 48 180 216 161 161 184
181 220 186 27 3 52 16 73 37 24 23 42 32 66 32 25 0 41 8 65 35 26 28 40 35
69 35 28 0 44 8 72 35 l35 36 102 -3 101 -2 27 32 26 32 225 2 c123 2 278 1
344 -1 117 -3 121 -4 147 -32z m-660 -3666 c47 -47 48 -48 48 -112 l0 -64 -77
-75 c-43 -41 -88 -81 -100 -89 -36 -24 -28 -53 30 -105 51 -47 53 -48 118 -48
l67 0 135 135 136 135 67 0 c67 0 68 0 116 -47 48 -48 48 -48 48 -113 l0 -65
-93 -90 c-51 -49 -112 -107 -135 -128 -45 -40 -48 -48 -32 -78 8 -14 21 -19
54 -19 36 0 48 -5 75 -35 24 -27 39 -35 66 -35 31 0 50 16 205 170 l171 170
67 0 c66 0 68 -1 115 -46 47 -46 47 -46 47 -113 l0 -68 -135 -132 c-133 -129
-135 -132 -135 -175 0 -53 24 -76 78 -76 25 0 41 -9 66 -35 51 -53 83 -49 151
21 45 45 55 61 55 90 0 29 10 43 64 95 54 52 65 69 71 105 5 33 17 53 52 88
45 45 47 46 112 46 66 0 66 0 114 -48 47 -48 47 -50 47 -115 0 -62 -2 -68 -35
-101 -26 -27 -35 -44 -35 -70 0 -29 -9 -43 -65 -94 -58 -53 -65 -64 -65 -97 0
-29 -7 -43 -35 -68 -19 -17 -35 -35 -35 -41 0 -6 23 -33 52 -61 l52 -50 71 0
71 0 52 52 52 52 0 69 c0 66 1 70 35 99 34 30 35 34 35 102 l0 70 50 51 c50
49 52 50 110 50 58 0 61 -2 112 -50 l53 -50 1 -97 2 -97 -36 -33 c-36 -33 -36
-35 -34 -102 2 -66 1 -69 -33 -100 -34 -31 -35 -33 -35 -111 0 -70 2 -81 22
-94 12 -9 37 -16 54 -16 22 0 42 -10 68 -36 37 -35 39 -36 105 -32 93 5 101
13 101 105 0 73 1 75 35 106 l35 31 0 170 0 170 47 48 c47 48 48 48 114 48 66
0 67 -1 113 -46 25 -26 46 -52 46 -58 1 -6 1 -83 2 -170 l0 -160 -33 -27 -34
-27 1 -145 c0 -105 4 -149 13 -161 11 -14 41 -16 196 -16 158 0 184 2 196 17
11 12 14 68 15 247 1 127 2 236 3 243 1 6 22 32 49 57 45 44 49 46 108 46 60
0 63 -1 113 -49 l51 -49 0 -238 c0 -207 2 -240 17 -256 14 -15 32 -18 124 -18
l108 0 35 35 c34 34 38 35 101 32 60 -2 69 0 87 23 17 21 19 36 16 96 -3 66
-6 73 -36 99 -31 26 -32 30 -32 100 0 73 -1 74 -35 101 -34 25 -35 29 -35 92
0 66 1 67 47 114 l47 48 69 0 69 0 49 -50 49 -51 -2 -66 c-2 -64 -1 -67 33
-95 33 -28 34 -30 31 -98 l-2 -68 56 -57 56 -57 74 4 c71 3 76 5 100 36 24 31
28 32 97 32 81 0 92 4 106 42 10 27 -2 98 -17 98 -11 0 -100 88 -112 110 -6
10 -10 31 -10 47 0 19 -9 36 -31 54 -30 24 -32 30 -32 93 l-1 66 49 50 c49 50
50 50 114 50 63 0 65 -1 113 -47 39 -39 48 -55 48 -82 0 -29 11 -45 70 -104
62 -62 70 -75 70 -108 0 -52 26 -69 107 -69 58 0 66 3 102 35 27 25 48 35 71
35 47 0 70 24 70 73 0 35 -7 46 -70 109 l-70 70 0 59 c0 58 2 61 49 110 l48
51 68 0 67 0 76 -73 c42 -41 78 -75 80 -76 3 -1 7 -23 10 -48 6 -60 28 -75
109 -75 63 0 64 0 118 53 49 47 55 58 55 93 0 37 -6 47 -67 105 -67 64 -67 64
-71 125 l-4 62 49 51 49 51 71 0 70 0 81 -82 c72 -72 82 -86 82 -118 0 -25 7
-43 23 -57 12 -11 32 -32 44 -46 29 -35 49 -34 81 3 20 22 35 30 60 30 26 0
42 8 66 35 27 29 40 35 72 35 71 0 87 50 32 93 -18 13 -63 55 -100 91 -67 65
-68 67 -68 119 0 74 6 87 63 136 49 42 51 43 111 39 l61 -5 113 -113 c102
-104 112 -117 112 -151 0 -37 20 -69 44 -69 7 0 25 14 41 30 26 27 35 30 91
30 59 0 64 2 118 47 66 56 71 79 23 116 -18 13 -63 54 -100 91 l-67 66 0 61
c0 59 1 61 51 115 l52 54 62 0 61 0 168 -170 c92 -93 172 -170 178 -170 5 0
23 14 40 32 26 28 38 33 91 36 l62 4 53 -52 52 -52 0 -65 c0 -61 -2 -66 -35
-96 -29 -25 -35 -38 -35 -70 0 -37 7 -46 105 -144 l105 -104 0 -50 c0 -59 -5
-70 -59 -126 -40 -42 -41 -43 -108 -43 l-68 0 -170 170 c-152 152 -173 170
-203 170 -24 0 -42 -9 -69 -35 -27 -26 -45 -35 -71 -35 -24 0 -41 -8 -60 -28
-15 -16 -37 -34 -49 -41 -31 -16 -31 -66 -1 -82 12 -7 57 -47 100 -90 l78 -78
0 -63 c0 -62 -1 -64 -48 -110 -49 -48 -49 -48 -117 -48 l-67 0 -113 113 c-102
102 -112 116 -118 157 -7 51 -26 70 -75 70 -26 0 -42 -8 -66 -35 -26 -27 -40
-35 -68 -35 -29 0 -46 -9 -87 -48 -28 -26 -51 -55 -51 -64 0 -9 12 -26 26 -37
18 -14 29 -36 35 -66 7 -38 19 -55 74 -106 l65 -61 0 -64 c0 -62 -1 -65 -48
-114 l-48 -50 -67 0 -68 0 -78 78 c-65 65 -79 85 -83 118 -5 32 -19 54 -86
122 -44 45 -87 82 -96 82 -8 0 -25 -13 -38 -30 -21 -28 -26 -30 -92 -30 -77 0
-87 -4 -105 -37 -24 -46 -14 -69 61 -143 l73 -70 -1 -65 c-1 -65 -1 -65 -54
-116 l-53 -51 -62 4 -62 4 -82 82 c-70 71 -81 87 -81 117 0 84 -95 102 -153
28 -16 -20 -27 -23 -80 -23 -88 0 -104 -7 -117 -46 -15 -43 -6 -70 36 -110 28
-25 34 -39 34 -71 0 -32 5 -42 24 -52 30 -17 46 -51 46 -102 0 -50 -11 -72
-64 -124 l-42 -41 -69 6 c-67 5 -72 7 -112 49 -34 35 -43 52 -43 79 0 30 -11
45 -90 123 -105 105 -129 112 -187 54 -33 -33 -39 -35 -103 -35 -65 0 -70 -2
-101 -35 -26 -27 -41 -35 -69 -35 -55 0 -72 -18 -78 -83 -6 -74 1 -97 43 -140
32 -32 35 -42 35 -92 0 -54 -2 -57 -54 -109 l-53 -54 -69 6 c-66 5 -70 7 -111
51 -41 45 -42 48 -43 115 l0 69 -47 44 c-27 25 -56 49 -65 54 -21 11 -260 5
-280 -7 -7 -4 -21 -18 -31 -31 -16 -20 -27 -23 -87 -23 -105 0 -114 -11 -111
-140 l2 -103 -49 -48 c-49 -49 -50 -49 -116 -49 -67 0 -67 0 -117 49 l-49 48
0 106 c0 145 15 137 -270 137 -281 0 -274 2 -278 -100 -3 -74 -3 -75 -50 -122
l-46 -48 -72 0 -71 0 -47 50 -47 50 3 136 c4 162 3 164 -104 164 -64 0 -69 2
-99 35 -31 34 -35 35 -101 35 -91 0 -104 -8 -112 -67 -5 -39 -14 -56 -49 -90
-39 -39 -46 -41 -102 -43 -33 -1 -65 -1 -71 -1 -6 1 -32 22 -58 47 l-46 47 0
98 c0 98 0 99 30 121 21 15 30 30 30 50 0 38 -25 49 -101 42 -64 -6 -64 -6
-97 30 -25 28 -40 36 -67 36 -26 0 -42 8 -62 30 -28 32 -67 39 -80 16 -4 -8
-29 -37 -55 -65 l-47 -51 -65 0 c-65 0 -65 0 -116 50 -49 50 -50 52 -50 111 0
57 2 63 35 92 41 36 43 49 14 78 -16 16 -28 19 -53 15 -28 -5 -37 -2 -65 29
-25 28 -39 35 -69 35 -30 0 -44 7 -71 35 -53 57 -84 50 -167 -35 l-68 -70 -65
0 c-75 0 -71 -1 -128 62 -39 43 -43 53 -43 98 0 45 4 55 35 87 19 20 35 42 35
49 0 17 -156 174 -173 174 -7 0 -55 -45 -107 -100 l-94 -100 -65 0 c-63 0 -68
2 -108 40 -55 52 -63 68 -63 130 0 48 3 54 49 98 26 26 58 55 70 64 27 22 27
43 0 66 -11 9 -36 32 -54 50 -31 30 -39 32 -100 32 l-67 0 -103 -105 -103
-105 -63 0 c-63 0 -65 1 -116 50 -53 49 -53 50 -53 111 l0 61 353 354 352 354
70 0 c69 0 69 0 117 -47z"/>
<path d="M12180 23371 c0 -26 15 -34 46 -27 15 4 24 14 24 26 0 16 -7 20 -35
20 -28 0 -35 -4 -35 -19z"/>
<path d="M18175 23160 c-3 -5 -1 -10 4 -10 6 0 11 5 11 10 0 6 -2 10 -4 10 -3
0 -8 -4 -11 -10z"/>
<path d="M11127 22866 c-7 -16 1 -26 20 -26 7 0 13 9 13 20 0 23 -25 27 -33 6z"/>
<path d="M20000 22046 c0 -9 7 -16 16 -16 9 0 14 5 12 12 -6 18 -28 21 -28 4z"/>
<path d="M9308 21326 c-23 -17 -23 -26 2 -26 13 0 20 7 20 20 0 23 0 23 -22 6z"/>
<path d="M21316 20561 c-7 -11 18 -33 27 -24 4 3 7 12 7 20 0 15 -26 18 -34 4z"/>
<path d="M8141 19554 c0 -11 3 -14 6 -6 3 7 2 16 -1 19 -3 4 -6 -2 -5 -13z"/>
<path d="M8057 19357 c-6 -18 3 -37 19 -37 18 0 18 36 0 43 -8 3 -16 0 -19 -6z"/>
<path d="M22070 19145 c0 -8 4 -15 9 -15 5 0 11 7 15 15 3 9 0 15 -9 15 -8 0
-15 -7 -15 -15z"/>
<path d="M22462 17873 c5 -25 28 -28 28 -4 0 12 -6 21 -16 21 -9 0 -14 -7 -12
-17z"/>
<path d="M22585 16737 c-4 -10 -5 -21 -1 -24 10 -10 18 4 13 24 -4 17 -4 17
-12 0z"/>
<path d="M21910 12610 c0 -11 7 -20 15 -20 8 0 15 9 15 20 0 11 -7 20 -15 20
-8 0 -15 -9 -15 -20z"/>
<path d="M8145 12437 c-4 -10 -5 -21 -1 -24 10 -10 18 4 13 24 -4 17 -4 17
-12 0z"/>
<path d="M21745 12264 c-9 -9 -14 -18 -11 -21 7 -7 46 16 46 27 0 15 -17 12
-35 -6z"/>
<path d="M20710 10720 c0 -11 7 -20 15 -20 17 0 18 2 9 24 -9 23 -24 20 -24
-4z"/>
<path d="M19980 9980 c-11 -11 -20 -26 -20 -34 0 -26 23 -30 41 -8 9 12 22 22
28 22 6 0 11 9 11 20 0 13 -7 20 -20 20 -11 0 -29 -9 -40 -20z"/>
<path d="M19215 9380 c-3 -6 1 -13 10 -16 19 -8 30 0 20 15 -8 14 -22 14 -30
1z"/>
<path d="M8340 8355 c-16 -20 1 -56 33 -70 17 -8 23 -21 27 -60 4 -40 10 -52
30 -62 21 -10 26 -21 30 -64 4 -46 9 -55 35 -69 26 -14 31 -23 35 -71 4 -46 9
-56 31 -66 14 -7 31 -23 38 -37 7 -13 24 -30 37 -37 19 -10 24 -20 24 -54 0
-30 6 -47 23 -63 13 -12 28 -22 34 -22 14 0 23 -24 23 -65 0 -24 7 -39 25 -53
14 -11 25 -29 25 -41 0 -18 -6 -21 -37 -21 -40 -1 -61 -13 -79 -45 -8 -15 -24
-21 -56 -23 -37 -2 -52 -9 -77 -38 -25 -27 -39 -34 -70 -34 -37 0 -71 -23 -71
-48 0 -8 -18 -12 -49 -12 -45 0 -53 -3 -77 -35 -22 -29 -33 -35 -63 -35 -30 0
-44 -8 -76 -40 -22 -22 -45 -38 -52 -35 -28 10 -69 -7 -85 -36 -15 -26 -22
-29 -68 -29 -45 0 -52 -3 -62 -26 -11 -23 -9 -28 12 -45 15 -11 41 -19 67 -19
36 0 44 -4 55 -27 13 -27 18 -28 97 -33 81 -5 85 -6 101 -35 l17 -30 113 -3
c115 -3 150 -14 150 -47 0 -17 33 -25 106 -25 54 0 63 -3 89 -30 26 -27 34
-29 108 -32 78 -3 81 -4 97 -33 16 -29 19 -30 95 -33 79 -3 115 -18 115 -47 0
-17 33 -25 103 -25 53 0 62 -3 89 -32 30 -33 31 -33 132 -34 134 -2 136 -2
136 -17 0 -8 10 -23 23 -35 20 -19 35 -22 100 -22 60 0 77 -3 77 -14 0 -8 15
-26 32 -40 l32 -25 -2 -308 c-3 -327 -2 -332 46 -347 12 -4 22 -13 22 -20 0
-15 42 -56 57 -56 5 0 15 -11 21 -25 17 -36 49 -45 162 -45 98 0 99 0 112 -27
13 -28 14 -28 128 -31 115 -3 150 -14 150 -47 0 -20 25 -25 130 -25 106 0 130
-5 130 -26 0 -31 42 -44 145 -44 105 0 113 -3 131 -35 10 -18 23 -20 125 -23
114 -3 149 -14 149 -48 0 -20 51 -31 122 -26 83 5 138 -4 138 -23 0 -25 51
-50 105 -51 160 -2 165 -3 174 -28 5 -13 17 -26 26 -30 9 -3 76 -6 149 -6
l132 0 33 -35 33 -35 104 0 104 0 29 -32 c29 -33 30 -33 139 -38 106 -5 111
-6 132 -32 l21 -28 143 0 c151 0 162 -3 179 -52 6 -16 24 -18 187 -18 186 0
198 -2 212 -41 9 -23 52 -29 218 -29 82 0 156 -3 165 -6 9 -4 21 -17 26 -30
l9 -24 283 0 c305 0 301 1 320 -52 6 -17 48 -18 687 -18 667 0 720 2 720 31 0
35 24 39 311 41 270 3 282 4 293 23 6 11 16 23 21 27 6 4 98 8 205 8 107 0
204 3 216 6 11 3 28 18 38 34 l17 29 151 3 c138 3 152 5 162 23 25 44 30 45
175 45 l140 0 21 30 21 30 122 0 c141 0 188 10 202 42 10 22 15 23 156 26
l146 3 32 34 31 35 106 0 c105 0 105 0 134 31 l28 31 129 3 c137 3 178 12 188
43 8 26 30 30 142 29 76 0 96 3 113 18 11 10 20 24 20 30 0 16 23 25 66 25 27
0 41 8 65 35 17 19 36 35 43 35 6 0 20 14 29 30 l18 30 112 0 112 1 20 32 20
32 120 5 c119 5 120 5 133 33 8 15 24 32 37 37 13 5 26 18 30 30 3 11 19 27
35 35 16 8 34 24 40 36 8 13 11 118 9 320 l-2 301 25 21 c14 12 28 30 31 40 5
14 19 17 74 17 73 0 133 25 133 55 0 12 19 15 113 15 120 0 112 -3 165 56 15
17 29 21 68 18 66 -3 114 6 114 21 0 26 35 40 113 46 53 4 82 10 85 19 13 37
42 50 115 50 76 0 95 9 110 53 5 14 19 17 91 17 84 0 85 0 103 30 l17 30 108
0 108 0 31 35 c30 33 34 34 112 37 78 3 81 4 97 33 15 26 23 30 67 33 62 4 81
21 65 57 -10 21 -18 25 -56 25 -38 0 -49 5 -77 35 -25 26 -42 35 -65 35 -41 0
-64 9 -64 25 0 23 -29 38 -73 37 -42 0 -77 20 -77 44 0 18 -19 28 -69 34 -30
3 -47 11 -55 25 -19 33 -39 44 -84 45 -36 0 -44 4 -52 25 -9 25 -28 32 -89 37
-21 2 -38 10 -45 23 -20 36 -34 45 -69 45 -19 0 -40 7 -48 16 -11 14 -8 20 19
44 26 23 32 35 32 69 0 37 4 44 35 62 33 20 35 24 35 71 0 46 2 51 30 61 17 6
30 16 30 22 0 15 43 55 58 55 7 0 12 16 12 43 0 45 22 87 45 87 15 0 35 58 35
100 0 19 8 28 31 37 29 11 31 15 25 48 -7 33 -4 40 28 70 41 38 46 69 15 86
-31 16 -82 3 -114 -31 -27 -28 -34 -30 -101 -30 -70 0 -72 -1 -98 -35 -27 -35
-28 -35 -102 -35 -76 0 -93 -7 -107 -42 -5 -15 -19 -18 -83 -18 -74 0 -77 -1
-108 -35 -32 -34 -34 -35 -109 -35 -73 0 -77 -1 -94 -27 -24 -38 -32 -43 -75
-43 -35 0 -78 -29 -78 -52 0 -4 -36 -8 -79 -8 l-79 0 -32 -40 c-31 -40 -32
-40 -100 -40 -76 0 -100 -6 -100 -25 0 -30 -36 -45 -111 -45 -72 0 -76 -1 -97
-30 -21 -28 -27 -30 -85 -30 -82 0 -102 -7 -116 -36 -6 -13 -22 -29 -36 -34
-14 -5 -29 -18 -32 -27 -9 -22 -23 -37 -45 -45 -9 -4 -22 -19 -30 -35 -7 -15
-26 -34 -41 -41 -17 -8 -27 -21 -28 -35 0 -12 0 -135 1 -273 l1 -252 -29 -33
c-16 -19 -31 -42 -35 -51 -4 -10 -15 -18 -25 -18 -10 0 -28 -13 -39 -29 -16
-20 -34 -30 -65 -35 -44 -7 -78 -30 -78 -53 0 -10 -25 -13 -114 -13 l-115 0
-27 -35 -26 -35 -105 0 c-104 0 -143 -9 -143 -34 0 -25 -37 -49 -66 -42 -37
10 -204 11 -231 2 -13 -4 -36 -20 -52 -36 -28 -28 -30 -29 -122 -26 -94 3
-139 -7 -139 -29 0 -7 -8 -19 -18 -28 -15 -14 -42 -17 -159 -17 l-140 0 -26
-30 c-26 -29 -30 -30 -116 -30 -98 0 -138 -10 -148 -37 -4 -10 -11 -21 -17
-25 -6 -4 -78 -8 -159 -8 -131 0 -148 -2 -154 -17 -18 -51 -25 -53 -214 -53
l-177 0 -27 -32 -28 -33 -209 -2 c-114 -1 -213 -5 -219 -8 -6 -4 -14 -18 -19
-31 l-10 -24 -312 0 c-330 -1 -332 -1 -357 -47 l-12 -23 -494 0 -494 0 -12 23
c-25 46 -30 46 -321 47 l-277 0 -13 27 c-18 38 -51 43 -267 41 l-183 -2 -27
32 -26 32 -141 0 -142 0 -26 35 -27 35 -143 0 c-126 0 -145 2 -159 18 -10 10
-17 24 -17 30 0 7 -6 12 -12 13 -7 0 -57 2 -111 4 -116 4 -129 8 -142 37 -9
22 -17 23 -124 26 -119 3 -136 8 -152 49 -10 26 -16 27 -137 23 -84 -2 -132
13 -132 43 0 21 -53 34 -135 31 -92 -3 -125 3 -125 21 0 30 -34 40 -148 45
l-115 5 -17 30 -17 30 -114 3 c-113 2 -114 3 -139 32 -22 27 -33 30 -100 36
-74 7 -110 23 -110 51 0 10 -25 13 -115 13 l-116 0 -30 35 c-31 34 -32 35
-110 35 -74 0 -80 2 -88 23 -5 13 -21 31 -35 40 l-26 17 0 285 0 284 -30 16
c-17 9 -35 27 -40 41 -5 13 -21 29 -35 34 -14 5 -30 21 -35 35 -5 14 -16 25
-23 25 -16 0 -57 42 -57 58 0 14 -21 16 -103 12 -59 -2 -97 15 -97 45 0 19
-24 25 -98 25 -65 0 -68 1 -105 40 -37 40 -38 40 -112 40 -41 0 -75 4 -75 8 0
5 -9 18 -20 30 -18 19 -32 22 -90 22 -66 0 -71 1 -101 34 -26 29 -40 36 -78
38 -36 2 -48 8 -56 25 -14 32 -47 43 -126 43 -57 0 -71 3 -76 18 -13 34 -31
41 -109 44 -76 3 -79 4 -99 35 -20 32 -22 32 -96 33 -73 0 -76 1 -109 35 -32
33 -37 35 -103 35 -64 0 -71 2 -95 30 -22 25 -34 30 -73 30 -30 0 -51 -6 -59
-15z m326 -170 c26 -35 27 -35 102 -35 74 0 76 -1 108 -35 31 -34 34 -35 105
-35 70 0 74 -1 99 -32 26 -31 32 -33 104 -36 70 -4 78 -6 97 -33 16 -22 30
-30 70 -35 39 -5 54 -13 70 -35 19 -27 24 -29 94 -29 55 0 77 -4 87 -16 44
-53 46 -54 122 -54 72 0 74 -1 100 -35 27 -35 27 -35 107 -35 75 0 80 -1 91
-25 14 -31 60 -47 117 -39 l46 6 83 -82 82 -81 0 -59 c0 -81 -5 -90 -49 -90
-25 0 -44 -7 -57 -20 -10 -11 -25 -26 -33 -33 -7 -6 -44 -42 -81 -79 -48 -49
-75 -68 -93 -68 -37 0 -76 -20 -83 -42 -3 -10 -18 -25 -34 -33 -16 -8 -31 -23
-35 -34 -3 -11 -22 -31 -41 -46 l-35 -27 1 -226 c1 -125 1 -235 1 -244 -1 -12
-9 -18 -26 -18 -14 0 -25 5 -25 10 0 6 -9 19 -20 30 -16 16 -33 20 -95 20 -70
0 -76 2 -86 24 -17 37 -48 45 -149 40 l-91 -6 -33 36 c-31 35 -35 36 -102 36
-68 0 -71 1 -101 35 -31 34 -33 35 -106 35 -74 0 -75 1 -101 35 -27 35 -28 35
-104 35 -76 0 -78 1 -95 30 -18 29 -20 30 -94 30 -73 0 -76 1 -107 35 l-32 35
-105 0 -105 0 -33 36 -32 37 -68 -7 c-54 -5 -71 -3 -81 9 -18 22 -3 35 40 35
30 0 45 7 67 30 22 23 37 30 67 30 31 0 45 7 72 35 26 28 40 35 69 35 29 0 43
7 68 35 25 29 38 35 69 35 27 0 43 6 56 21 35 44 44 49 80 49 42 0 55 7 70 36
8 16 24 23 59 27 37 4 52 12 72 36 15 18 37 37 51 44 37 19 37 46 0 77 -26 21
-33 36 -37 74 -5 39 -11 49 -34 62 -25 12 -29 21 -29 54 0 36 -7 47 -70 111
-58 60 -70 78 -70 105 0 25 -9 42 -35 68 -26 26 -35 44 -35 68 0 25 -8 39 -32
59 -28 23 -30 29 -19 43 10 12 31 16 77 16 60 0 64 -2 90 -35z m12764 -50 c10
-12 10 -18 0 -30 -7 -8 -18 -15 -25 -15 -16 0 -35 -44 -35 -80 0 -20 -7 -33
-22 -41 -31 -16 -38 -28 -38 -70 0 -27 -8 -43 -32 -67 -18 -17 -40 -39 -49
-48 -9 -9 -26 -25 -38 -35 -15 -14 -21 -31 -21 -63 0 -39 -4 -47 -27 -58 -23
-11 -30 -23 -38 -65 -7 -37 -18 -57 -37 -73 -16 -12 -28 -30 -28 -40 0 -11 12
-26 28 -34 15 -8 37 -28 50 -45 19 -25 30 -31 62 -31 38 0 46 -5 82 -49 13
-15 29 -21 58 -21 23 0 44 -6 52 -16 41 -49 49 -54 93 -54 38 0 47 -4 56 -24
13 -28 48 -46 89 -46 20 0 35 -9 50 -30 18 -25 28 -30 61 -30 32 0 46 -7 75
-35 28 -28 42 -35 74 -35 33 0 40 -3 40 -20 0 -18 -7 -20 -79 -20 -80 0 -80 0
-107 -35 l-26 -35 -109 0 -108 0 -23 -30 c-21 -29 -25 -30 -96 -30 -72 0 -75
-1 -106 -35 -31 -34 -35 -35 -104 -35 -74 0 -76 -1 -120 -54 -9 -12 -32 -16
-86 -16 -71 0 -73 -1 -104 -36 -31 -35 -35 -36 -84 -32 -64 7 -101 -5 -118
-37 -13 -24 -17 -25 -123 -25 l-109 0 -32 -35 c-31 -33 -36 -35 -100 -35 -63
0 -70 -2 -96 -30 -29 -31 -59 -40 -61 -17 0 6 0 116 1 243 1 206 0 233 -15
245 -9 8 -28 25 -41 39 -108 111 -132 130 -165 130 -25 0 -43 12 -94 63 -34
34 -71 69 -81 78 -10 9 -27 26 -36 38 -12 14 -29 21 -51 21 -47 0 -57 15 -57
88 l0 63 79 80 80 79 67 0 c65 0 69 1 101 36 32 35 35 36 83 30 66 -9 98 1
116 35 14 28 17 29 94 29 79 0 79 0 106 35 26 35 27 35 105 35 75 0 79 1 96
28 24 37 32 42 74 42 28 0 42 7 66 35 31 34 33 35 104 34 72 -1 72 -1 104 36
30 37 33 38 81 32 70 -8 98 0 118 34 17 28 20 29 93 29 74 0 77 1 107 35 30
33 34 35 97 35 47 0 70 -4 79 -15z m-11085 -876 c8 -12 7 -263 -1 -284 -4 -10
-20 -15 -48 -15 -34 0 -45 5 -68 32 l-27 33 -108 0 c-104 0 -108 1 -111 23 -3
20 1 22 35 22 32 0 47 7 81 40 22 22 45 40 50 40 5 0 14 11 21 24 7 13 23 29
36 36 13 7 28 23 34 36 9 20 18 24 55 24 25 0 48 -5 51 -11z m9333 -68 c9 -11
22 -26 29 -33 17 -19 81 -78 131 -121 31 -27 51 -37 77 -37 28 0 35 -4 35 -20
0 -19 -7 -20 -111 -20 l-111 0 -31 -35 c-34 -39 -84 -48 -107 -20 -16 19 -20
262 -5 281 5 7 21 15 35 17 14 2 28 5 33 6 4 0 15 -8 25 -18z m-9718 -215 c14
-38 40 -46 149 -46 100 0 100 0 117 -29 22 -38 36 -41 145 -34 l89 6 33 -37
c33 -35 35 -36 105 -36 74 0 76 -1 120 -54 10 -13 34 -16 117 -16 l104 0 35
-35 c34 -33 39 -35 105 -35 67 0 71 -1 95 -32 23 -30 30 -33 83 -34 179 -3
173 -2 184 -28 17 -37 48 -45 148 -39 l90 6 32 -37 33 -36 107 0 c86 0 111 -3
121 -16 46 -55 42 -54 154 -54 l105 0 33 -35 33 -35 106 0 106 0 21 -30 21
-30 109 0 109 0 27 -35 26 -35 142 0 142 0 31 -35 31 -35 139 0 138 0 27 -32
27 -33 213 -2 212 -3 24 -30 23 -30 279 0 279 0 27 -35 26 -35 136 0 c174 0
172 2 172 -128 l0 -96 -35 -32 c-34 -30 -35 -35 -35 -101 0 -40 -5 -74 -12
-81 -9 -9 -72 -12 -223 -12 -221 0 -235 -3 -235 -45 0 -31 19 -45 64 -45 37 0
47 -7 158 -117 133 -131 142 -151 88 -196 -39 -34 -49 -61 -43 -124 5 -50 4
-54 -31 -85 -27 -24 -36 -39 -36 -64 0 -18 -7 -40 -16 -49 -15 -15 -19 -13
-49 19 l-33 36 -275 0 -276 0 -18 30 c-20 34 -9 33 -214 30 -166 -2 -172 0
-199 51 -10 18 -23 19 -190 19 -188 0 -181 -2 -222 49 -17 20 -28 21 -156 21
l-138 0 -31 35 -31 35 -107 0 -106 0 -34 36 -34 35 -102 -2 -102 -3 -26 32
-26 32 -138 0 -139 0 -31 35 -31 35 -106 0 -106 0 -31 35 -31 35 -109 0 c-105
0 -110 1 -122 24 -20 36 -47 43 -151 40 l-94 -2 -31 34 -31 34 -107 0 -106 0
-27 35 -26 35 -108 0 c-112 0 -112 0 -152 49 -16 19 -28 21 -122 21 -107 0
-121 4 -144 47 -7 12 -33 16 -123 19 -94 3 -116 7 -126 22 -21 29 -32 40 -50
51 -17 9 -18 50 -21 616 -2 455 0 610 9 621 17 21 38 17 49 -10z m10056 -57
c4 -7 6 -284 5 -617 l-2 -604 -42 -44 -42 -44 -102 0 c-106 0 -119 -5 -143
-51 -10 -17 -22 -19 -121 -19 l-110 0 -65 -65 c-44 -44 -73 -65 -89 -65 -39 0
-69 -16 -84 -44 -14 -26 -16 -26 -124 -26 l-109 0 -32 -35 -32 -35 -140 0
-140 0 -31 -35 -31 -35 -106 0 c-106 0 -110 -1 -139 -43 -10 -15 -32 -18 -152
-21 -77 -2 -147 -6 -156 -10 -9 -4 -21 -18 -27 -31 -11 -23 -14 -24 -162 -27
-130 -3 -153 -5 -161 -20 -25 -46 -34 -48 -181 -48 l-140 0 -31 -35 -31 -35
-143 0 -142 0 -15 -29 c-9 -16 -23 -32 -32 -35 -10 -4 -108 -6 -218 -5 l-201
1 -26 -31 -25 -31 -273 0 -273 0 -32 -35 -32 -35 -240 0 c-173 0 -243 3 -252
12 -7 7 -12 27 -12 46 0 26 -8 42 -35 66 -34 31 -35 35 -35 102 0 67 -2 71
-35 103 -60 57 -53 75 82 207 105 103 120 114 153 114 41 0 60 14 60 45 0 41
-15 45 -197 45 l-172 0 -46 44 c-37 37 -45 51 -45 81 0 29 -7 43 -35 68 -34
30 -35 33 -35 102 0 64 -3 74 -26 94 -14 12 -24 30 -22 39 3 15 30 17 285 22
155 3 283 7 285 10 2 3 12 17 21 33 l17 27 313 0 312 0 26 32 27 32 198 2
c250 1 231 -1 249 34 l16 30 179 0 c189 0 194 1 220 51 10 17 23 19 155 19
119 0 146 3 157 16 46 55 42 54 157 54 l110 0 17 29 c16 27 21 29 102 34 47 4
112 4 144 0 57 -6 58 -5 91 31 l33 36 107 0 106 0 27 35 26 35 144 0 143 0 27
35 27 36 101 -2 c114 -1 128 3 146 35 12 23 19 24 126 28 l115 3 25 33 c20 25
33 32 60 32 35 0 49 10 149 110 29 29 32 30 134 30 l105 0 31 34 31 35 90 -3
c111 -3 121 0 140 35 15 30 37 38 50 18z m-4929 -2032 c46 -58 105 -101 146
-106 34 -5 43 -10 45 -28 2 -13 -1 -23 -7 -24 -6 0 -144 0 -306 0 -162 0 -300
0 -306 0 -6 1 -9 11 -7 24 2 18 11 23 46 28 36 5 53 16 105 67 l62 62 102 0
c94 0 103 -2 120 -23z"/>
<path d="M10134 6481 c-46 -8 -59 -56 -28 -100 23 -32 21 -394 -1 -428 -8 -12
-15 -33 -15 -46 0 -43 24 -52 124 -49 50 1 98 5 108 8 28 8 29 33 4 80 -23 44
-24 75 -3 102 10 13 240 18 272 6 34 -13 38 -53 10 -105 -30 -57 -29 -53 -9
-73 12 -12 37 -16 108 -16 81 0 95 3 111 20 17 19 18 24 3 68 -19 58 -18 416
1 435 15 15 14 70 -1 85 -19 19 -202 16 -222 -4 -21 -20 -20 -30 4 -64 14 -19
20 -47 22 -94 4 -92 -2 -96 -155 -96 -65 0 -127 5 -138 10 -29 16 -27 128 3
181 21 37 21 40 5 57 -13 12 -40 18 -101 22 -46 3 -92 3 -102 1z"/>
<path d="M11187 6190 c-9 -14 -12 -37 -9 -70 4 -44 0 -57 -30 -108 -19 -31
-46 -76 -58 -99 -13 -24 -27 -43 -31 -43 -5 0 -14 -19 -20 -42 -15 -53 -66
-133 -95 -149 -12 -6 -28 -22 -35 -35 -10 -20 -10 -27 5 -43 15 -17 31 -19
119 -19 127 1 147 10 147 71 0 24 5 48 12 55 15 15 235 17 272 2 20 -7 26 -16
26 -40 0 -70 41 -91 173 -87 65 2 81 5 93 21 20 28 19 30 -27 73 -22 21 -50
56 -61 78 -12 22 -31 54 -43 70 -12 17 -27 46 -34 65 -6 19 -22 46 -35 60 -12
14 -29 41 -36 60 -7 19 -22 47 -32 62 -10 14 -18 42 -18 62 0 65 -22 76 -154
76 -104 0 -116 -2 -129 -20z m171 -293 c-4 -27 -19 -31 -43 -12 -19 15 -19 15
-2 29 24 19 49 9 45 -17z"/>
<path d="M11866 5994 c-20 -19 -20 -47 -2 -83 22 -41 22 -404 1 -435 -19 -27
-19 -61 1 -80 11 -12 35 -16 92 -15 137 2 160 19 124 95 -20 40 -21 51 -12 74
15 36 37 40 181 33 152 -8 177 -2 234 51 51 49 65 84 65 169 0 75 -17 112 -73
165 l-47 42 -274 0 c-236 0 -277 -2 -290 -16z m454 -147 c33 -16 38 -59 11
-86 -19 -19 -33 -21 -131 -21 -107 0 -110 1 -126 26 -22 33 -9 75 26 85 44 12
193 9 220 -4z"/>
<path d="M12696 5802 c-28 -6 -38 -48 -21 -88 22 -53 23 -400 1 -443 -37 -70
-13 -91 104 -91 49 0 100 4 114 10 32 12 34 42 6 77 -22 29 -27 85 -7 101 7 6
83 12 184 14 l172 3 42 40 c54 52 69 90 69 170 0 80 -15 118 -69 169 l-41 40
-268 0 c-148 1 -276 -1 -286 -2z m452 -164 c18 -15 15 -52 -7 -79 -18 -23 -26
-24 -124 -24 -72 1 -110 5 -121 14 -19 16 -21 74 -3 89 26 22 228 21 255 0z"/>
<path d="M13508 5670 c-17 -4 -24 -14 -26 -37 -3 -27 2 -34 43 -57 25 -15 53
-39 62 -54 15 -24 41 -55 120 -146 61 -69 71 -93 69 -154 -1 -31 -8 -67 -14
-79 -19 -35 -15 -81 8 -93 25 -13 197 -5 216 11 18 15 17 47 -1 79 -22 39 -19
136 5 168 60 79 91 125 103 155 8 18 42 60 76 94 97 97 85 113 -80 113 -136 0
-138 -1 -148 -90 -5 -42 -14 -67 -31 -85 -35 -38 -61 -32 -108 24 -34 40 -42
57 -42 90 0 22 -6 43 -12 48 -16 10 -209 20 -240 13z"/>
<path d="M19032 6468 c-19 -19 -14 -44 14 -77 l26 -31 -5 -194 c-4 -180 -6
-196 -26 -221 -25 -33 -27 -58 -4 -76 19 -17 220 -14 240 3 20 16 15 47 -12
80 -30 36 -32 61 -5 88 54 54 166 -6 215 -116 12 -28 28 -54 33 -58 16 -9 211
-18 244 -11 16 4 33 16 40 28 12 23 19 17 -92 90 -36 24 -67 51 -68 61 -2 9 7
26 20 37 119 103 133 131 117 232 -8 50 -17 69 -52 106 -22 26 -50 51 -61 58
-30 17 -607 18 -624 1z m509 -148 c14 -8 19 -21 19 -50 0 -29 -5 -42 -19 -50
-11 -5 -73 -10 -138 -10 -135 0 -163 10 -163 60 0 50 28 60 163 60 65 0 127
-5 138 -10z"/>
<path d="M18152 6198 c-16 -16 -15 -57 3 -88 11 -19 14 -69 14 -215 0 -146 -3
-196 -14 -215 -19 -33 -19 -65 1 -81 21 -17 579 -25 629 -9 57 19 71 101 22
135 -17 12 -52 14 -197 9 -179 -6 -230 0 -230 30 0 21 34 29 125 32 44 1 92 2
108 3 58 2 86 66 48 112 -17 22 -29 24 -144 29 -137 7 -157 15 -157 61 0 53
23 59 230 59 216 0 230 4 230 71 0 26 -7 46 -20 59 -19 19 -33 20 -328 20
-226 0 -311 -3 -320 -12z"/>
<path d="M17275 5993 c-14 -13 -16 -27 -10 -67 13 -94 14 -389 2 -450 -11 -56
-11 -59 12 -77 42 -34 220 -22 234 16 3 7 -3 29 -14 49 -26 48 -25 120 1 146
27 27 58 14 95 -41 16 -24 37 -53 47 -63 10 -11 18 -32 18 -47 0 -15 9 -37 19
-50 18 -22 27 -24 138 -27 135 -4 173 5 173 42 0 18 -11 31 -44 50 -24 14 -67
53 -97 86 -30 34 -78 86 -107 116 -61 62 -65 90 -17 114 54 27 106 62 152 102
24 21 51 38 58 38 8 0 20 10 26 22 10 18 8 24 -11 40 -19 15 -41 18 -139 18
-128 -1 -141 -5 -159 -59 -17 -48 -39 -70 -78 -77 -74 -14 -104 16 -69 70 19
28 11 52 -18 60 -12 3 -61 6 -109 6 -68 0 -90 -4 -103 -17z"/>
<path d="M16684 5801 c-32 -14 -35 -46 -8 -86 23 -35 24 -42 24 -227 0 -189 0
-190 -25 -220 -26 -31 -26 -63 -1 -81 6 -4 55 -6 108 -5 77 2 101 7 115 21 16
15 16 20 3 50 -21 46 -24 416 -4 469 15 41 11 63 -14 73 -28 11 -176 16 -198
6z"/>
<path d="M15650 5650 c-23 -23 -23 -24 -10 -70 13 -43 13 -403 1 -447 -12 -43
-4 -68 25 -82 27 -12 516 -15 546 -3 9 4 40 29 69 56 l51 50 -5 60 c-3 34 -10
77 -15 97 -7 26 -6 47 4 75 8 22 14 70 14 107 l0 68 -51 55 -52 54 -278 0
c-266 0 -280 -1 -299 -20z m458 -141 c34 -12 47 -37 37 -70 -10 -30 -45 -39
-157 -39 -113 0 -138 11 -138 61 0 46 31 59 136 59 50 0 105 -5 122 -11z m13
-275 c25 -30 -14 -44 -122 -44 -54 0 -104 3 -113 6 -16 6 -22 35 -9 47 3 4 57
7 118 7 91 0 115 -3 126 -16z"/>
</g>
</svg>
